<?xml version="1.0" standalone="no"?>
<!DOCTYPE svg PUBLIC "-//W3C//DTD SVG 1.1//EN" "http://www.w3.org/Graphics/SVG/1.1/DTD/svg11.dtd" >
<!--
2013-9-30: Created.
-->
<svg>
<metadata>
Created by iconfont
</metadata>
<defs>

<font id="iconfont" horiz-adv-x="1024" >
  <font-face
    font-family="iconfont"
    font-weight="500"
    font-stretch="normal"
    units-per-em="1024"
    ascent="896"
    descent="-128"
  />
    <missing-glyph />
    
    <glyph glyph-name="xiugai" unicode="&#58982;" d="M834.603419-60.481234c-28.690436-0.001023-56.695257 11.376095-77.19515 31.875988L547.818787 181.177642c-0.450255 0.449231-0.436952 0.396019-0.765433 0.802272-2.405793 2.443655-6.221702 4.738931-10.997472 2.26253-0.246617-0.127913-0.49528-0.249687-0.747014-0.36532-46.595224-21.562085-96.394421-32.495088-148.013055-32.495088-47.664579 0-93.912903 9.339716-137.461745 27.759227-42.053792 17.787108-79.817883 43.246967-112.243387 75.671447-32.425504 32.426527-57.885362 70.189595-75.67247 112.242364-18.419512 43.548842-27.759227 89.797166-27.759227 137.461745 0 34.233686 5.108345 68.423369 15.181771 101.617375 0.191358 0.630357 0.415462 1.25048 0.672312 1.857301 6.261611 14.797008 16.156982 19.971867 23.355941 21.707394 15.544021 3.752464 28.114314-5.92699 30.476105-7.90504 0.421602-0.353041 0.827855-0.724501 1.215688-1.113357l156.502403-156.506497c42.113143-42.11212 110.63475-42.111097 152.74687 0l14.932084 14.932084c42.113143 42.113143 42.113143 110.636796 0 152.74994L275.221272 785.877927c-2.995217 2.952238-16.23066 17.145495-12.616342 33.943067 1.248434 5.803169 5.612834 16.364713 20.808932 21.902846 0.297782 0.107447 0.596588 0.208754 0.899486 0.301875 33.685193 10.372232 68.334341 15.631002 102.981443 15.631002 47.664579 0 93.913926-9.338692 137.462768-27.758204 42.053792-17.787108 79.81686-43.24799 112.243387-75.673493 32.425504-32.426527 57.884338-70.190619 75.671447-112.24441 18.419512-43.548842 27.759227-89.798189 27.759227-137.463792 0-47.240931-9.277294-93.215008-27.574009-136.647193-0.413416-0.980327-0.909719-1.923816-1.483794-2.820232-3.445472-5.384637-3.813862-9.953699-1.227967-15.277962 2.122337-4.373611 5.500271-7.500834 5.531993-7.526417 0.430812-0.360204 0.845251-0.738827 1.242294-1.13587l205.101261-205.101261c24.787546-24.781406 36.160571-60.248176 30.423917-94.872764-1.687432-10.187013-11.313673-17.072841-21.50171-15.389502-10.187013 1.687432-17.076934 11.314697-15.389502 21.50171 3.76986 22.74912-3.696182 46.046732-19.97289 62.318324L690.99365 314.153212c-12.778024 11.129478-30.560016 38.879496-12.039197 69.567425 15.981996 38.420031 24.083511 79.051427 24.083511 120.79618 0 84.339874-32.844036 163.630754-92.479251 223.268016C550.922475 787.421073 471.632617 820.264085 387.29479 820.264085c-27.644617 0-55.31277-3.759627-82.392522-11.18576l150.780075-150.780075c27.463492-27.463492 42.587957-63.978127 42.587957-102.81669s-15.124466-75.352175-42.587957-102.81669l-14.932084-14.932084c-56.69321-56.692187-148.936077-56.691163-205.629287 0L83.412758 589.446116c-7.872295-27.833929-11.861142-56.373938-11.861142-84.929298 0-84.337827 32.843012-163.626661 92.480274-223.263923 59.636239-59.635215 138.926096-92.479251 223.263923-92.479251 46.034453 0 90.434685 9.717316 131.97887 28.884864 24.868387 12.609179 46.728254-0.959861 55.353702-10.410094l209.227232-209.41859c15.799848-15.799848 37.440727-23.179932 59.57177-20.366863 9.735735 3.145643 57.338916 17.845437 106.856703 21.383006 10.30367 0.728594 19.246343-7.017834 19.981077-17.317411 0.735757-10.299577-7.017834-19.246343-17.317411-19.981077-49.66105-3.545756-98.847286-19.930935-99.338473-20.09671-1.049912-0.353041-2.130524-0.61296-3.226484-0.773619C845.128123-60.099541 839.85298-60.481234 834.603419-60.481234z"  horiz-adv-x="1024" />

    
    <glyph glyph-name="tubiao06" unicode="&#58985;" d="M832.004212-64.514108l-640.000256 0c-105.878385 0-192.003966 86.157305-192.003966 192.074577L-1.0e-05 511.718833c0 35.390696 28.623247 64.026223 63.993476 64.026223 35.380462 0 64.00678-28.635528 64.00678-64.026223l0-384.158364c0-35.264823 28.688742-64.02213 64.00371-64.02213l640.000256 0c35.314968 0 64.001663 28.757307 64.001663 64.02213L896.005875 511.718833c0 35.390696 28.622224 64.026223 64.00371 64.026223 35.370229 0 63.990406-28.635528 63.990406-64.026223l0-384.158364C1023.99999 21.643197 937.878503-64.514108 832.004212-64.514108zM489.376675 278.249535c12.438884-12.442977 32.812864-12.442977 45.251747 0l210.750811 210.833703c12.436837 12.446047 8.246197 22.634572-9.374958 22.634572l-64.005756 0c-17.618085 0-31.998273 14.382235-31.998273 32.016693L640.000246 671.784904c0 17.629342-14.367908 32.00953-31.999296 32.00953l-192.001919 0c-17.620131 0-31.999296-14.381212-31.999296-32.00953l0-128.049377c0-17.634458-14.377118-32.016693-32.00032-32.016693l-64.00371 0c-17.619108 0-21.810771-10.188525-9.368818-22.634572L489.376675 278.249535zM384.000758 799.838374c0 17.626271 14.314694 32.00953 31.999296 32.00953 17.69279 0 32.002367-14.384282 32.002367-32.00953 0-17.760331-14.309577-32.017717-32.002367-32.017717C398.316475 767.819634 384.000758 782.077019 384.000758 799.838374zM576.004723 799.838374c0 17.626271 14.315717 32.00953 31.99725 32.00953 17.690743 0 31.999296-14.384282 31.999296-32.00953 0-17.760331-14.30753-32.017717-31.999296-32.017717C590.321464 767.819634 576.004723 782.077019 576.004723 799.838374zM416.000054 831.847904l192.001919 0 0-64.027247-192.001919 0 0 64.027247Z"  horiz-adv-x="1025" />

    
    <glyph glyph-name="shanchu" unicode="&#59282;" d="M898.814348 652.629133l-214.894302 0c-5.739724 0-11.160177 2.286066-15.189957 6.299473l-79.658248 79.658248L434.952718 738.586854l-79.658248-79.658248c-4.02978-4.013407-9.530051-6.299473-15.205307-6.299473l-214.894302 0c-11.864212 0-21.521153 9.625218-21.521153 21.441335 0 11.879562 9.657964 21.537526 21.521153 21.537526l206.004841 0 79.658248 79.641875c4.02978 3.997034 9.530051 6.315846 15.189957 6.315846l171.915441 0c5.756097 0 11.17655-2.318812 15.205307-6.315846l79.658248-79.641875L898.814348 695.607994c11.879562 0 21.537526-9.657964 21.537526-21.537526C920.351873 662.254352 910.69391 652.629133 898.814348 652.629133L898.814348 652.629133zM748.436432-13.591297l-472.767464 0c-47.424102 0-85.957721 38.613436-85.957721 85.957721l0 472.767464c0 11.879562 9.577123 21.537526 21.441335 21.537526 11.879562 0 21.457708-9.657964 21.457708-21.537526l0-472.767464c0-23.647583 19.346627-42.930765 43.058678-42.930765l472.767464 0c23.632233 0 42.97886 19.283182 42.97886 42.930765l0 472.767464c0 11.879562 9.577123 21.537526 21.441335 21.537526 11.879562 0 21.537526-9.657964 21.537526-21.537526l0-472.767464C834.394153 25.022139 795.827789-13.591297 748.436432-13.591297L748.436432-13.591297zM404.605549 115.345284c-11.879562 0-21.537526 9.657964-21.537526 21.537526L383.068024 545.133887c0 11.879562 9.657964 21.537526 21.537526 21.537526 11.799744 0 21.441335-9.657964 21.441335-21.537526l0-408.251078C426.046884 125.002224 416.405293 115.345284 404.605549 115.345284L404.605549 115.345284zM619.499851 115.345284c-11.879562 0-21.537526 9.657964-21.537526 21.537526L597.962326 545.133887c0 11.879562 9.657964 21.537526 21.537526 21.537526 11.799744 0 21.441335-9.657964 21.441335-21.537526l0-408.251078C640.941186 125.002224 631.299595 115.345284 619.499851 115.345284L619.499851 115.345284z"  horiz-adv-x="1024" />

    
    <glyph glyph-name="shuaxin" unicode="&#59284;" d="M857.146343 505.960703c-10.937097-4.6366-23.552415 0.463558-28.189016 11.44875C775.105838 645.193791 650.71069 727.825766 512.004605 727.825766c-189.5511 0-343.830883-154.247037-343.830883-343.830883 0-189.567473 154.279782-343.830883 343.830883-343.830883 138.626267 0 263.021415 82.535785 316.90565 210.257701 4.621251 10.952446 17.251919 16.053628 28.124548 11.416004 10.952446-4.588505 16.1007-17.188474 11.464099-28.157293-60.582797-143.66298-200.568015-236.495272-356.494297-236.495272-213.263152 0-386.809743 173.530219-386.809743 386.809743 0 213.263152 173.546591 386.809743 386.809743 386.809743 156.037822 0 295.974945-92.929506 356.590488-236.719376C873.198947 523.148154 868.082416 510.532835 857.146343 505.960703L857.146343 505.960703zM877.35664 491.410312 640.941186 491.410312c-11.864212 0-21.457708 9.641591-21.457708 21.521153 0 11.864212 9.593496 21.457708 21.457708 21.457708l214.894302 0 0 214.894302c0 11.879562 9.641591 21.521153 21.521153 21.521153s21.457708-9.641591 21.457708-21.521153l0-236.352009C898.814348 501.051903 889.236202 491.410312 877.35664 491.410312L877.35664 491.410312z"  horiz-adv-x="1024" />

    
    <glyph glyph-name="iconset0344" unicode="&#59123;" d="M512 810.666667c138.666667 0 262.4-66.133333 341.333333-170.666667l-170.666667 0c-12.8 0-21.333333-8.533333-21.333333-21.333333 0-12.8 8.533333-21.333333 21.333333-21.333333l213.333333 0c12.8 0 21.333333 8.533333 21.333333 21.333333L917.333333 832c0 12.8-8.533333 21.333333-21.333333 21.333333-12.8 0-21.333333-8.533333-21.333333-21.333333l0-151.466667C789.333333 787.2 659.2 853.333333 512 853.333333 251.733333 853.333333 42.666667 644.266667 42.666667 384c0-12.8 8.533333-21.333333 21.333333-21.333333 12.8 0 21.333333 8.533333 21.333333 21.333333C85.333333 618.666667 277.333333 810.666667 512 810.666667zM960 405.333333c-12.8 0-21.333333-8.533333-21.333333-21.333333 0-234.666667-192-426.666667-426.666667-426.666667-138.666667 0-262.4 66.133333-341.333333 170.666667l170.666667 0c12.8 0 21.333333 8.533333 21.333333 21.333333 0 12.8-8.533333 21.333333-21.333333 21.333333L128 170.666667c-12.8 0-21.333333-8.533333-21.333333-21.333333l0-213.333333c0-12.8 8.533333-21.333333 21.333333-21.333333 12.8 0 21.333333 8.533333 21.333333 21.333333l0 151.466667c85.333333-104.533333 215.466667-172.8 362.666667-172.8 260.266667 0 469.333333 209.066667 469.333333 469.333333C981.333333 396.8 972.8 405.333333 960 405.333333z"  horiz-adv-x="1024" />

    
    <glyph glyph-name="shanchu1" unicode="&#58987;" d="M992 657.455h-63.998l-0-721.455c0-35.346-28.658-64-64-64h-704.002c-35.344 0-64 28.654-64 64v721.455h-64c-17.674 0-32 37.599-32 55.271 0 17.674 14.326 32 32 32h320v119.273c-0.002 17.672 14.328 32 32.002 32h255.998c17.672 0 32.002-14.328 32.002-32v-119.273h319.998c17.674 0 32-14.328 32-32s-14.326-55.271-32-55.271zM608 832h-192v-87.273h192v87.273zM864.002 616.727v40.729h-704.002v-666.184c0-17.672 14.328-32 32-32h640c17.672 0 32 14.328 32 32v625.455zM672 456.727h63.998v-384h-63.998v384zM480.002 520.729h63.998v-448h-63.998v448zM288 456.727h63.998v-384h-63.998v384z"  horiz-adv-x="1024" />

    
    <glyph glyph-name="xiugai-copy" unicode="&#58988;" d="M932.981 251.462c-16.379 0-35.29-13.401-35.29-29.78v-120.165c0-57.030-46.011-103.189-102.594-103.189h-569.106c-56.732 0-102.594 46.159-102.594 103.189v567.914c0 57.030 45.862 103.189 102.594 103.189h252.091c16.379 0 29.632-1.489 29.632 14.89s-13.252 44.67-29.632 44.67h-295.87c-65.368 0-118.377-53.307-118.377-119.122v-655.171c0-65.815 53.009-119.122 118.377-119.122h656.66c65.368 0 118.377 53.307 118.377 119.122v163.793c0.001 16.379-7.891 29.78-24.27 29.78zM247.731 153.037c-4.765-32.46 17.422-54.2 49.584-48.245l188.808 34.099-209.208 210.549-29.185-196.403zM639.643 615.976c23.229 23.377 60.603 23.377 83.832 0l41.842-41.99c23.080-23.377 23.080-61.050 0-84.278l-188.363-189.554c-23.080-23.229-60.603-23.229-83.683 0l-41.842 42.14c-23.080 23.229-23.080 60.901 0 84.278l188.214 189.405zM535.113 173.736l355.728 358.11-209.208 210.548-355.728-357.962 209.208-210.697zM935.809 591.406c34.694 34.844 24.42 81.152-10.274 115.995l-83.683 84.279c-34.694 34.844-90.831 34.844-125.525 0l209.208-210.548 10.274 10.274z"  horiz-adv-x="1024" />

    
    <glyph glyph-name="yemianshuaxin" unicode="&#58991;" d="M1022.767407 363.159704C1011.749926 90.149926 787.721481-128 512-128 229.224296-128 0 101.224296 0 384S229.224296 896 512 896c177.322667 0 332.382815-91.022222 424.220444-228.02963L936.220444 847.056593c0 16.156444 13.084444 29.259852 29.259852 29.259852s29.259852-13.103407 29.259852-29.259852l0-243.617185c0-16.175407-13.084444-29.259852-29.259852-29.259852L721.863111 574.179556c-16.175407 0-29.259852 13.084444-29.259852 29.259852 0 16.156444 13.084444 29.259852 29.259852 29.259852l167.841185 0C808.63763 755.617185 670.283852 837.480296 512 837.480296 261.537185 837.480296 58.519704 634.462815 58.519704 384c0-250.443852 203.017481-453.480296 453.480296-453.480296 245.532444 0 444.946963 195.223704 452.759704 438.821926l0.758519 0c0.056889 16.118519 13.103407 29.165037 29.221926 29.165037 16.175407 0 29.259852-13.103407 29.259852-29.259852C1024 367.085037 1023.241481 365.188741 1022.767407 363.159704z"  horiz-adv-x="1024" />

    
    <glyph glyph-name="suopingmima" unicode="&#58989;" d="M783.318941 501.697411 753.192841 501.697411 753.192841 621.856926c0 144.493142-100.075448 257.672244-242.225987 257.672244-142.728374 0-240.00843-115.585236-240.00843-257.672244l0-120.159515-30.127109 0c-66.483344 0-120.550789-56.503833-120.550789-125.940894l0-377.831758c0-69.452187 54.067445-125.924759 120.550789-125.924759l542.502752 0c66.467209 0 120.535662 56.503833 120.535662 125.924759l0 377.831758C903.870739 445.22484 849.801277 501.697411 783.318941 501.697411L783.318941 501.697411zM331.225751 621.856926c0 107.354359 70.293225 194.688183 179.741103 194.688183 108.353722 0 181.95866-85.522668 181.95866-194.688183l0-120.159515L331.225751 501.697411 331.225751 621.856926 331.225751 621.856926zM783.318941-65.030057 240.800054-65.030057c-33.217973 0-60.236065 28.237294-60.236065 62.954816l0 377.831758c0 34.76391 27.048345 62.969943 60.236065 62.969943l542.487625 0c33.249235 0 60.267327-28.206033 60.267327-62.969943l0-377.831758 0.030253 0C843.58526-36.792763 816.536915-65.030057 783.318941-65.030057L783.318941-65.030057zM512.075129 312.786574c-33.296632 0-60.267327-28.172754-60.267327-62.999188 0-23.28586 12.118409-43.636154 30.141227-54.505108l0-102.887984c0-17.366324 13.462658-31.483459 30.127109-31.483459s30.157362 14.117134 30.157362 31.483459L542.233499 195.282279c17.991556 10.885088 30.108957 31.266644 30.108957 54.505108C572.342456 284.598694 545.37176 312.786574 512.075129 312.786574L512.075129 312.786574zM512.075129 312.786574"  horiz-adv-x="1024" />

    
    <glyph glyph-name="shouquanweituoshu" unicode="&#58993;" d="M209.418079 657.197172l404.03608 0 0-55.113225L209.418079 602.083947l3.598968 39.522132L209.418079 657.197172 209.418079 657.197172zM209.412962 512.879276l317.092915 0 0-55.113225L209.412962 457.766051 209.412962 512.879276 209.412962 512.879276zM209.399659 339.903689l144.131655 0 0-55.112202L209.399659 284.791487l3.618411 17.040095L209.399659 339.903689 209.399659 339.903689zM405.395542-4.894218 120.638079-4.894218l0 781.079388 640.909975 0-0.008186-223.124753c15.584953 0 37.820374-3.873214 53.249785-3.873214L814.789653 800.866293c0 15.487739-15.429411 30.976502-30.857798 30.976502L96.137059 831.842795c-15.587 0-31.169907-15.488763-31.169907-30.976502L64.967152-31.220816c0-15.735379 15.473413-31.465642 30.948873-31.465642l344.265788 0c-15.470343 19.665899-17.275455 42.307571-28.965705 57.793264L405.395542-4.894218 405.395542-4.894218 405.395542-4.894218zM613.64347 244.519272c2.889817-3.64297 5.945409-7.176446 8.899694-10.598382 2.494821-2.883677 5.075599-5.869684 7.491625-8.848529 7.837502-9.66308 7.761778-16.050558-0.302899-25.319665-1.943258-2.232854-4.071735-4.329609-6.324032-6.54916-2.112104-2.081405-4.296863-4.235464-6.356778-6.544043-0.793062-0.89437-1.601474-1.778506-2.408863-2.667759-3.837398-4.221138-7.804756-8.583492-10.797927-13.731746-8.810666-15.158235-8.898671-31.18321-0.258896-46.348608 8.090259-14.19735 21.574365-21.702278 38.990013-21.702278l0.021489 0c13.57211 0.004093 27.140127 0.008186 40.709167 0.008186l56.127322-0.004093 5.206582 0.021489c5.974062 0 11.952216-0.005117 17.925255-0.00614 7.715729-0.00614 15.430434-0.008186 23.146163-0.008186 20.668739 0 36.449143 0.028653 51.167357 0.097214 5.01113 0.022513 9.955746 0.744967 14.302751 2.091638 13.556761 4.197602 23.893176 14.432711 28.356838 28.081569 4.626367 14.142092 1.992377 29.854958-7.043417 42.032302-4.336772 5.846148-9.465582 11.008728-14.422478 16.001439-1.989307 2.00261-4.043083 4.071735-5.984295 6.123464-11.610432 12.287861-11.741415 18.430768-0.656963 31.290657 7.233752 8.395204 14.257725 16.668635 20.691251 25.578562 27.484981 38.059827 37.027311 79.472006 28.358885 123.087363-6.27389 31.56388-18.807345 58.316174-37.252439 79.519078-18.700921 21.49864-43.554982 37.371142-73.870428 47.176462-18.036795 5.833869-35.909861 8.792247-53.124941 8.792247-40.065508 0-77.036537-15.682167-109.881596-46.610574-37.433564-35.243689-54.142108-80.375585-49.656957-134.140093C579.224566 301.069219 591.308789 272.670425 613.64347 244.519272zM659.535683 426.337247c11.865235 11.17041 24.447808 19.635199 37.396725 25.161053 12.628622 5.38873 25.974581 8.120958 39.667441 8.120958 12.154831 0 24.940019-2.14178 38.000476-6.364965 21.691021-7.017834 39.270399-18.140149 52.248991-33.060977 12.912078-14.83794 21.7647-33.966603 26.315342-56.852846 3.038196-15.297404 2.860141-30.28884-0.530073-44.560892-3.342118-14.09195-9.927093-28.008914-19.571754-41.3692-5.066389-7.016811-10.882861-13.858636-16.895809-20.832468-20.469194-23.756053-19.946284-47.342238 1.552356-70.097498 1.971911-2.088568 3.921309-4.054339 5.807263-5.954619l0.121773-0.121773c3.818979-3.845585 7.429203-7.477298 9.987468-10.92584 2.956332-3.981684 2.169409-7.798617 1.693572-9.252735-0.574075-1.752924-1.888-4.037966-4.882194-4.967128-0.970094-0.296759-2.318812-0.469698-3.708462-0.473791-17.241686-0.080841-34.370809-0.089028-45.754067-0.089028l-20.74344 0.005117c-6.927783 0.00614-13.849426 0.00614-20.778232 0.00614l-20.736277-0.016373-29.606295 0c-12.17632 0-24.352641 0-36.537148-0.007163-5.646604 0-6.605442 1.681292-7.712659 3.624551-2.201132 3.865028-2.177596 6.361895 0.096191 10.276041 1.01512 1.74576 3.428076 4.39817 5.76633 6.966669l0.122797 0.137123c0.7552 0.831948 1.5104 1.665942 2.269693 2.51017 1.177825 1.328251 2.75781 2.883677 4.287653 4.38896 2.124384 2.090615 4.767584 4.692882 7.318686 7.626701 17.148565 19.703761 17.501606 42.692335 0.970094 63.070454-2.427282 2.997264-4.857635 5.811356-7.208169 8.531304l-0.13917 0.161682c-2.425236 2.800789-4.931313 5.696746-7.144724 8.490372-16.067954 20.25123-24.722054 40.202631-26.456558 60.994166-1.588171 19.039635 0.473791 36.604686 6.125511 52.210106C636.605438 399.474436 646.248052 413.828352 659.535683 426.337247zM494.312664-8.679427l464.179878 0L958.492542-63.792653 494.312664-63.792653 494.312664-8.679427zM608.403119 77.278293l250.319116 0L858.722234 22.165068 608.403119 22.165068 608.403119 77.278293z"  horiz-adv-x="1024" />

    
    <glyph glyph-name="daochu" unicode="&#59040;" d="M953.37931 145.655172v-205.453241c0 1.271172 1.147586 2.418759 2.48938 2.418759H68.148966c1.324138 0 2.489379-1.165241 2.489379-2.48938V827.851034C70.62069 826.473931 69.526069 825.37931 68.201931 825.37931h265.039448a35.310345 35.310345 0 0 1 0 70.62069H68.201931A68.166621 68.166621 0 0 1 0 827.86869V-59.851034A68.06069 68.06069 0 0 1 68.13131-128H955.851034A68.096 68.096 0 0 1 1024-59.798069V205.241379a35.310345 35.310345 0 0 1-70.62069 0V145.655172z m0 624.763587V384a35.310345 35.310345 0 0 1 70.62069 0V827.921655A68.148966 68.148966 0 0 1 955.921655 896H512a35.310345 35.310345 0 0 1 0-70.62069h396.464552l-456.739311-456.73931a35.310345 35.310345 0 0 1 49.928828-49.928828L953.37931 770.418759z"  horiz-adv-x="1024" />

    
    <glyph glyph-name="quanxian" unicode="&#58994;" d="M950.66749 161.591166a31.970084 31.970084 0 0 1-45.213286 0l-60.985194-60.959906a15.085545 15.085545 0 0 0-10.750618-4.425238 15.085545 15.085545 0 0 0-10.750618 4.42885l-85.546166 85.553391 71.724974 71.721363a31.970084 31.970084 0 1 1-45.213285 45.20606l-71.721363-71.721362-177.898167 177.937904a254.991226 254.991226 0 0 1 61.686007 166.667095c0 141.383635-114.615462 255.999097-255.999097 255.999097S64.00158 717.38657 64.00158 575.999323s114.615462-255.999097 255.999097-255.999097a254.821442 254.821442 0 0 1 146.899829 46.318692l202.032872-202.079834c0.216746-0.231196 0.42988-0.466005 0.657464-0.689976s0.455167-0.433493 0.682751-0.650239L777.758101 55.425199a78.592221 78.592221 0 0 1 55.953066-23.159346 78.603059 78.603059 0 0 1 55.963904 23.152121l60.985194 60.970744a31.952022 31.952022 0 0 1 0.007225 45.202448z m-555.929064 237.416712a191.722971 191.722971 0 0 0-182.066922 17.70095 192.80309 192.80309 0 0 0-69.655047 84.556358 191.722971 191.722971 0 0 0 17.700951 182.066922 192.80309 192.80309 0 0 0 84.541908 69.662272 191.722971 191.722971 0 0 0 182.066922-17.70095 192.806703 192.806703 0 0 0 69.655047-84.556358 191.722971 191.722971 0 0 0-17.700951-182.066922 192.806703 192.806703 0 0 0-84.541908-69.662272z"  horiz-adv-x="1024" />

    
    <glyph glyph-name="guanbi" unicode="&#58995;" d="M562.88 341.44c0-28.032-22.784-50.816-50.88-50.816s-50.816 22.72-50.816 50.816v440.768c0 28.032 22.784 50.816 50.816 50.816s50.88-22.784 50.88-50.816v-440.768zM86.016 360.64c0 152.064 80.32 285.76 200.512 360.64 23.488 14.976 54.912 7.808 69.76-16 14.848-23.872 7.68-55.104-16.064-69.952-91.584-57.536-152.448-158.656-152.448-274.56 0.384-179.008 145.152-323.84 324.224-324.224 179.072 0.448 323.776 145.28 324.096 324.224 0 118.656-64 221.952-159.296 278.656-24.192 14.336-32.128 45.568-17.856 69.76 14.4 24.128 45.632 32.064 69.824 17.792 124.928-73.792 209.344-210.176 209.344-366.080 0-235.136-190.656-425.856-425.92-425.856-235.456-0.384-426.176 190.272-426.176 425.6z"  horiz-adv-x="1024" />

    
    <glyph glyph-name="guanbi1" unicode="&#58996;" d="M512 390.93248m-431.83616 0a431.83616 431.83616 0 1 1 863.67232 0 431.83616 431.83616 0 1 1-863.67232 0ZM720.6912 234.4448l-52.20352-52.20352L512 338.72896l-156.48768-156.48768L303.3088 234.4448l156.4928 156.48768L303.3088 547.42016l52.16256 52.1984 156.5184-156.49792 156.49792 156.49792 52.20352-52.1984-156.50304-156.4928z"  horiz-adv-x="1024" />

    
    <glyph glyph-name="close" unicode="&#58881;" d="M511.878-127.989c-62.999 0-124.099 11.7-181.698 35-55.699 22.5-105.799 54.499-148.799 95.599-43.1 41-76.899 88.899-100.599 142.199-24.6 55.299-37 114.099-37 174.698 0 76.799 20.7 152.499 59.899 219.198 37.8 64.099 92.299 119.099 157.498 158.598 14.7 9 33.9 4.3 42.9-10.5 9-14.7 4.3-33.9-10.5-42.9-56.399-34.2-103.499-81.599-136.199-137.099-33.6-56.999-51.2-121.799-51.2-187.398 0-102.499 42-199.098 118.299-271.697 76.699-73.099 178.798-113.299 287.497-113.299s210.798 40.3 287.497 113.299c76.299 72.799 118.299 169.198 118.299 271.797 0 130.299-68.699 250.798-183.798 322.297-14.6 9.1-19.1 28.3-10 43 9.1 14.6 28.3 19.1 43 10 64.099-39.8 117.499-94.599 154.598-158.398 38.4-66.099 58.699-140.999 58.699-217.098 0-60.599-12.5-119.399-37-174.698-23.7-53.299-57.499-101.199-100.599-142.199-43-40.9-93.099-73.099-148.799-95.599-57.799-23.1-118.999-34.8-181.998-34.8zM511.878 389.606c-17.2 0-31.2 13.9-31.2 31.2v443.996c0 17.2 13.9 31.2 31.2 31.2 17.2 0 31.2-13.9 31.2-31.2v-443.896c0.1-17.2-14-31.3-31.2-31.3z"  horiz-adv-x="1024" />

    
    <glyph glyph-name="sousuo" unicode="&#58997;" d="M992.797784 39.357341c17.019391-17.019391 28.365651-42.548476 28.365651-68.077563s-11.34626-48.221607-31.202216-68.077562c-17.019391-17.019391-39.711911-31.202216-65.240997-31.202216-25.529086 0-48.221607 8.509695-68.077563 28.365651l-258.127424 260.963989c-59.567867-36.875346-130.481994-56.731302-201.396121-56.731302-215.578947 0-397.119114 178.703601-397.119114 394.282548C0 720.132964 178.703601 896 394.282548 896s391.445983-178.703601 391.445984-397.119114c0-68.077562-17.019391-136.155125-53.894737-195.722991l260.963989-263.800554z m-238.271468 462.360111c0 198.559557-164.520776 365.916898-363.080333 365.916897S31.202216 700.277008 31.202216 501.717452s170.193906-365.916898 365.916898-365.916898 357.407202 167.357341 357.407202 365.916898z m-39.711912-226.925208c-22.692521-34.038781-51.058172-62.404432-85.096952-87.933518l-5.673131-5.67313 252.454294-255.290859c17.019391-17.019391 56.731302-31.202216 90.770083 2.836565 36.875346 36.875346 25.529086 68.077562 2.836565 90.770083l-255.290859 255.290859zM397.119114 757.00831c-90.770083 0-173.030471-48.221607-218.415513-127.645429-5.67313-5.67313-11.34626-8.509695-17.01939-8.509695-2.836565 0-5.67313 0-8.509696 2.836565-5.67313 5.67313-8.509695 14.182825-5.67313 22.69252 51.058172 87.933518 144.66482 141.828255 246.781163 141.828255 8.509695 0 14.182825-8.509695 14.182826-17.01939 2.836565-8.509695-5.67313-14.182825-11.34626-14.182826z m-249.617729-198.559557c-5.67313-14.182825-8.509695-31.202216-8.509695-48.221606 0-8.509695-5.67313-17.019391-14.182826-17.019391s-17.019391 5.67313-17.01939 14.182826c0 19.855956 2.836565 36.875346 8.509695 56.731302 2.836565 8.509695 11.34626 14.182825 19.855956 11.34626 5.67313 0 11.34626-8.509695 11.34626-17.019391z"  horiz-adv-x="1024" />

    
    <glyph glyph-name="daochu1" unicode="&#58998;" d="M516.394 793.301c10.469 0 19.289-3.592 26.453-10.744L728.91 596.494c7.164-7.164 10.744-15.98 10.744-26.452 0-10.668-3.537-19.532-10.6-26.6-7.072-7.076-15.938-10.608-26.598-10.608-10.475 0-19.299 3.584-26.459 10.748l-122.381 122.68v-431.126c0-10.266-3.635-19.041-10.902-26.316-7.277-7.271-16.049-10.908-26.316-10.908-10.281 0-19.049 3.637-26.32 10.908-7.276 7.275-10.92 16.051-10.92 26.316V666.262l-122.364-122.68c-7.56-7.168-16.376-10.748-26.464-10.748-10.28 0-19.04 3.64-26.316 10.908-7.276 7.272-10.916 16.052-10.916 26.32 0 10.084 3.576 18.908 10.744 26.456l186.061 186.063c7.16 7.168 15.992 10.744 26.457 10.744l0.034-0.024z m367.71-520.935c10.264 0 19.045-3.639 26.309-10.912 7.268-7.275 10.912-16.051 10.912-26.328v-148.818c0-31.018-10.748-57.277-32.264-78.793-21.896-21.889-48.064-32.84-78.492-32.84H214.303c-30.417 0-56.772 10.855-79.06 32.568-21.716 22.287-32.568 48.643-32.568 79.064V235.126c0 10.285 3.634 19.053 10.908 26.328 7.276 7.273 16.049 10.912 26.321 10.912 10.266 0 19.04-3.639 26.316-10.912 7.273-7.275 10.908-16.051 10.908-26.328v-148.818c0-10.27 3.634-19.049 10.914-26.324 7.274-7.273 16.042-10.896 26.318-10.896h596.256c10.076 0 18.656 3.623 25.729 10.896 7.072 7.275 10.611 16.055 10.611 26.324V235.126c0 10.285 3.637 19.053 10.908 26.328 7.277 7.273 16.045 10.912 26.313 10.912h-0.073z"  horiz-adv-x="1024" />

    
    <glyph glyph-name="guanbi2" unicode="&#58999;" d="M512 346.624l154.112-154.112c5.12-5.12 11.8784-7.6288 18.6368-7.6288a26.2656 26.2656 0 0 1 18.688 45.056l-154.112 154.0096 154.112 154.112a26.4192 26.4192 0 0 1-37.376 37.3248L512 421.2736l-154.112 154.112a26.4192 26.4192 0 0 1-37.3248-37.376L474.624 384 320.512 229.888a26.4192 26.4192 0 0 1 37.376-37.376L512 346.624zM512-128C229.7344-128 0 101.7344 0 384S229.7344 896 512 896s512-229.6832 512-512-229.7344-512-512-512zM52.7872 384c0-253.184 206.0288-459.1616 459.2128-459.1616 253.184 0 459.2128 205.9776 459.2128 459.2128 0 253.184-206.0288 459.1616-459.2128 459.1616-253.184 0-459.2128-205.9776-459.2128-459.1616z"  horiz-adv-x="1024" />

    
    <glyph glyph-name="delete" unicode="&#59000;" d="M960 723.8v-40h-896v40h896zM652 824h-280v-100h40v60h200v-60h40v100zM862 683.8h-40v-699.8h-619.7v699.8h-40l-0.3-739.8h700v739.8zM348.3 547.9h-40v-380h40v380zM470.8 547.9h-40v-380h40v380zM593.2 547.9h-40v-380h40v380zM715.7 547.9h-40v-380h40v380z"  horiz-adv-x="1024" />

    
    <glyph glyph-name="sousuo1" unicode="&#59001;" d="M454.4 227.5c-57.2 0-110.9 22.3-151.3 62.7s-62.7 94.1-62.7 151.3 22.3 110.9 62.7 151.3c40.4 40.4 94.1 62.7 151.3 62.7s110.9-22.3 151.3-62.7c40.4-40.4 62.7-94.1 62.7-151.3s-22.3-110.9-62.7-151.3-94.2-62.7-151.3-62.7z m0 391.2c-47.3 0-91.9-18.4-125.3-51.9-33.5-33.5-51.9-78-51.9-125.3s18.4-91.9 51.9-125.3c33.5-33.5 78-51.9 125.3-51.9s91.9 18.4 125.3 51.9c33.5 33.5 51.9 78 51.9 125.3s-18.4 91.9-51.9 125.3c-33.5 33.4-78 51.9-125.3 51.9zM765.6 111.9c-4.7 0-9.4 1.8-13 5.4L579.7 290.1c-7.2 7.2-7.2 18.8 0 26s18.8 7.2 26 0l172.9-172.9c7.2-7.2 7.2-18.8 0-26-3.6-3.5-8.3-5.3-13-5.3zM512.2-81.9c-62.8 0-123.8 12.3-181.2 36.6-55.4 23.4-105.2 57-148 99.8-42.7 42.7-76.3 92.5-99.8 148-24.3 57.4-36.6 118.4-36.6 181.2s12.3 123.8 36.6 181.2c23.4 55.4 57 105.2 99.8 148s92.5 76.3 148 99.8C388.4 837 449.4 849.3 512.2 849.3 575 849.3 636 837 693.4 812.7c55.4-23.4 105.2-57 148-99.8 42.7-42.7 76.3-92.5 99.8-148 24.3-57.4 36.6-118.4 36.6-181.2s-12.3-123.8-36.6-181.2c-23.4-55.4-57-105.2-99.8-148-42.7-42.7-92.5-76.3-148-99.8-57.4-24.3-118.4-36.6-181.2-36.6z m0 894.3C275.7 812.4 83.4 620 83.4 383.6c0-236.5 192.4-428.8 428.8-428.8 236.5 0 428.8 192.4 428.8 428.8 0 236.5-192.4 428.8-428.8 428.8z"  horiz-adv-x="1024" />

    
    <glyph glyph-name="daoru" unicode="&#59002;" d="M563.2 853.333333v-640c0-23.466667-19.2-42.666667-42.666667-42.666666s-42.666667 19.2-42.666666 42.666666V853.333333c0 23.466667 19.2 42.666667 42.666666 42.666667s42.666667-19.2 42.666667-42.666667M806.1952 438.724267L550.5792 183.099733a42.7776 42.7776 0 0 0-60.330667 0c-16.597333 16.605867-16.597333 43.776 0 60.330667l255.616 255.624533a42.7776 42.7776 0 0 0 60.330667 0 42.7776 42.7776 0 0 0 0-60.330666M490.350933 183.1168L234.734933 438.724267a42.7776 42.7776 0 0 0 0 60.330666c16.597333 16.605867 43.776 16.605867 60.330667 0l255.616-255.616a42.7776 42.7776 0 0 0 0-60.330666 42.7776 42.7776 0 0 0-60.330667 0M904.533333-128H136.533333c-70.570667 0-128 57.429333-128 128V256c0 23.594667 19.072 42.666667 42.666667 42.666667s42.666667-19.072 42.666667-42.666667v-256c0-23.552 19.114667-42.666667 42.666666-42.666667h768c23.552 0 42.666667 19.114667 42.666667 42.666667V256c0 23.594667 19.072 42.666667 42.666667 42.666667s42.666667-19.072 42.666666-42.666667v-256c0-70.570667-57.429333-128-128-128"  horiz-adv-x="1032" />

    
    <glyph glyph-name="bofangqi-suoping" unicode="&#59033;" d="M791.272727 477.090909h-23.272727v69.818182c0 141.963636-116.363636 256-256 256-141.963636 0-256-114.036364-256-256v-69.818182h-23.272727c-51.2 0-93.090909-41.890909-93.090909-93.090909v-325.818182c0-51.2 41.890909-93.090909 93.090909-93.090909h558.545454c51.2 0 93.090909 41.890909 93.090909 93.090909V384c0 51.2-41.890909 93.090909-93.090909 93.090909z m-488.727272 69.818182c0 116.363636 93.090909 209.454545 209.454545 209.454545s209.454545-93.090909 209.454545-209.454545v-69.818182H302.545455v69.818182z m535.272727-488.727273c0-25.6-20.945455-46.545455-46.545455-46.545454H232.727273c-25.6 0-46.545455 20.945455-46.545455 46.545454V384c0 25.6 20.945455 46.545455 46.545455 46.545455h558.545454c25.6 0 46.545455-20.945455 46.545455-46.545455v-325.818182zM512 302.545455c-25.6 0-46.545455-20.945455-46.545455-46.545455 0-16.290909 9.309091-32.581818 23.272728-39.563636v-53.527273c0-11.636364 9.309091-23.272727 23.272727-23.272727s23.272727 11.636364 23.272727 23.272727v53.527273c13.963636 6.981818 23.272727 23.272727 23.272728 39.563636 0 25.6-20.945455 46.545455-46.545455 46.545455z"  horiz-adv-x="1024" />

    
    <glyph glyph-name="daoru1" unicode="&#59003;" d="M960-42.666667H64c-36.266667 0-64 27.733333-64 64V746.666667c0 36.266667 27.733333 64 64 64h315.733333c17.066667 0 34.133333-6.4 44.8-19.2l68.266667-68.266667c12.8-12.8 27.733333-19.2 44.8-19.2H960c36.266667 0 64-27.733333 64-64v-618.666667c0-36.266667-27.733333-64-64-64z m21.333333 682.666667c0 12.8-8.533333 21.333333-21.333333 21.333333H537.6c-27.733333 0-55.466667 10.666667-74.666667 32l-68.266666 68.266667c-4.266667 4.266667-10.666667 6.4-14.933334 6.4H64c-12.8 0-21.333333-8.533333-21.333333-21.333333v-725.333334c0-12.8 8.533333-21.333333 21.333333-21.333333h896c12.8 0 21.333333 8.533333 21.333333 21.333333V640zM539.733333 119.466667c-8.533333-8.533333-19.2-12.8-32-12.8-10.666667 0-23.466667 4.266667-32 12.8l-179.2 192c-25.6 27.733333-6.4 70.4 32 70.4H426.666667v128c0 23.466667 19.2 42.666667 42.666666 42.666666h85.333334c23.466667 0 42.666667-19.2 42.666666-42.666666v-128h89.6c36.266667 0 55.466667-44.8 32-70.4l-179.2-192zM554.666667 341.333333v170.666667h-85.333334v-170.666667h-138.666666l179.2-192 179.2 192H554.666667z"  horiz-adv-x="1024" />

    
    <glyph glyph-name="daochu-tianchong" unicode="&#59006;" d="M960-42.66666699999996H64c-36.266667 0-64 27.733333-64 64V746.666667c0 36.266667 27.733333 64 64 64h315.733333c17.066667 0 34.133333-6.4 44.8-19.2l68.266667-68.266667c12.8-12.8 27.733333-19.2 44.8-19.2H960c36.266667 0 64-27.733333 64-64v-618.666667c0-36.266667-27.733333-64-64-64zM539.733333 541.866667c-8.533333 8.533333-19.2 12.8-32 12.8-10.666667 0-23.466667-4.266667-32-12.8l-179.2-192c-25.6-27.733333-6.4-70.4 32-70.4H426.666667v-128c0-23.466667 19.2-42.666667 42.666666-42.666667h85.333334c23.466667 0 42.666667 19.2 42.666666 42.666667v128h89.6c36.266667 0 55.466667 44.8 32 70.4l-179.2 192z"  horiz-adv-x="1024" />

    
    <glyph glyph-name="sousuo2" unicode="&#59008;" d="M907.4-10.4c-29-29-76-29-105 0L657.7 134.3c-57.6-38.4-126.8-60.9-201.3-60.9-200.5 0-363.1 162.6-363.1 363.2S255.9 799.8 456.5 799.8s363.2-162.6 363.2-363.2c0-72.4-21.2-139.9-57.7-196.5l145.5-145.5c28.9-29 28.9-76-0.1-105zM456.4 665C330.3 665 228 562.7 228 436.6c0-126.1 102.3-228.4 228.4-228.4s228.4 102.3 228.4 228.4C684.9 562.7 582.6 665 456.4 665z m118.1-379.4c-1.4-2.1-3.5-3.6-6.2-4.2-5.5-1.3-11.1 2.2-12.3 7.7-1.2 5.2 1.7 10.3 6.7 12 59 46.5 80.8 126.4 53.6 196.1-0.7 1.4-1 2.9-1 4.5 0 5.7 4.6 10.3 10.3 10.3 4.2 0 7.8-2.5 9.4-6.1h0.1c30.7-78.3 6.1-168.4-60.6-220.3z"  horiz-adv-x="1024" />

    
    <glyph glyph-name="shanchu2" unicode="&#59009;" d="M722-36H302c-57.9 0-105 47.1-105 105V587c0 11.6 9.4 21 21 21s21-9.4 21-21v-518c0-34.7 28.3-63 63-63h420c34.7 0 63 28.3 63 63V587c0 11.6 9.4 21 21 21s21-9.4 21-21v-518c0-57.9-47.1-105-105-105zM911 659.9H113c-11.6 0-21 9.4-21 21s9.4 21 21 21h798c11.6 0 21-9.4 21-21s-9.4-21-21-21zM638 678c-11.6 0-21 9.4-21 21 0 34.7-28.3 63-63 63h-84c-34.7 0-63-28.3-63-63 0-11.6-9.4-21-21-21s-21 9.4-21 21c0 57.9 47.1 105 105 105h84c57.9 0 105-47.1 105-105 0-11.6-9.4-21-21-21zM343.1 87.1c-11.6 0-21 9.4-21 21V570c0 11.6 9.4 21 21 21s21-9.4 21-21v-461.8c0-11.7-9.4-21.1-21-21.1zM511.1 87.1c-11.6 0-21 9.4-21 21V570c0 11.6 9.4 21 21 21s21-9.4 21-21v-461.8c0-11.7-9.4-21.1-21-21.1zM679.1 87.1c-11.6 0-21 9.4-21 21V570c0 11.6 9.4 21 21 21s21-9.4 21-21v-461.8c0-11.7-9.4-21.1-21-21.1z"  horiz-adv-x="1024" />

    
    <glyph glyph-name="add" unicode="&#59011;" d="M892.6527488 329.3888512h-326.24913067v-327.68546133c0-30.1989888-24.3564544-54.61224107-54.3752192-54.61224107-29.999104 0-54.3555584 24.41434453-54.3555584 54.61224107V329.3888512h-326.24913066c-30.0089344 0-54.3653888 24.4711424-54.3653888 54.60350293 0 30.16075947 24.3564544 54.63190187 54.3653888 54.63190187h326.24913066V766.29988693c0 30.14219093 24.3564544 54.60350293 54.3555584 54.60350294 30.02750293 0 54.38395733-24.461312 54.38395734-54.60350294V438.624256h326.23930026c30.05590187 0 54.3555584-24.4711424 54.3555584-54.63190187 0.00218453-30.13236053-24.297472-54.60350293-54.35446613-54.60350293z m0 0"  horiz-adv-x="1024" />

    
    <glyph glyph-name="jiaoseshouquan" unicode="&#59012;" d="M819.218448 318.888365a32.383215 32.383215 0 0 1-9.714964 44.688837 485.748223 485.748223 0 0 1-122.408552 56.994458 259.065719 259.065719 0 1 1-284.972291 0A488.986545 488.986545 0 0 1 56.269906-46.394299a32.383215 32.383215 0 0 1 64.76643 0A423.57245 423.57245 0 0 0 774.529612 308.525736a32.383215 32.383215 0 0 1 44.688836 10.362629zM352.25249 632.357885a194.299289 194.299289 0 1 0 194.299289-194.299289 194.299289 194.299289 0 0 0-194.299289 194.299289zM898.233493 61.117975V133.656376h17.486936a32.383215 32.383215 0 0 1 0 64.76643H898.233493v50.517815h17.486936a32.383215 32.383215 0 0 1 0 64.76643H898.233493v64.76643a32.383215 32.383215 0 1 1-64.76643 0v-315.412513a97.797309 97.797309 0 1 1 64.76643 0z m-32.383215-124.99921a33.030879 33.030879 0 1 0 33.030879 33.03088 33.030879 33.030879 0 0 0-31.087886-32.383215z"  horiz-adv-x="1024" />

    
    <glyph glyph-name="xinzeng" unicode="&#59013;" d="M512-127.914667c-281.315556 0-509.269333 229.205333-509.269333 511.943111C2.730667 666.823111 230.684444 895.971556 512 895.971556c281.230222 0 509.240889-229.148444 509.240889-511.943112 0-282.794667-227.925333-511.943111-509.240889-511.943111z m0 955.704889c-243.768889 0-441.372444-198.656-441.372444-443.704889 0-244.963556 197.603556-443.676444 441.372444-443.676444 243.740444 0 441.287111 198.627556 441.344 443.676444 0 245.048889-197.603556 443.704889-441.344 443.704889z m234.382222-473.6h-199.822222l-0.881778-228.721778c0-8.476444 1.820444-44.8-37.432889-44.8-37.262222 0-33.536 23.978667-33.536 42.069334l0.085334 231.395555H255.260444c-14.336 0-31.374222-0.085333-31.374222 43.747556 0 32.568889 39.850667 28.871111 39.850667 28.871111h211.057778V647.452444c0 14.449778 11.121778 27.306667 35.84 25.856 24.718222-1.422222 35.84-11.463111 35.84-25.856v-220.700444h199.850666s45.539556 5.944889 45.084445-34.588444c-0.483556-40.561778-35.868444-37.973333-45.027556-37.973334z"  horiz-adv-x="1024" />

    
    <glyph glyph-name="shouquandaiban" unicode="&#59015;" d="M643.6 419.5c-3 1.4-6.3 2.8-9.9 4.3v0.2c42.1 41.1 66.1 97.4 66.1 156.1 0 120.2-97.8 218-218 218s-218-97.8-218-218c0-58.6 23.9-115 66.1-156.1v-0.2c-128.5-53.9-219-172.1-237.1-310.6-0.1-0.6-0.1-1.1-0.1-1.7-2.3-32 22.8-58.2 54.9-58.2h401.7c4.3 0 7 4.6 5 8.3-1 1.9-2.9 3-5.1 3h-9.5v-0.1H146.2c-23.5 0-42.7 19.1-42.7 42.7 0 1.5 0.1 3 0.3 4.4 18 137.4 109.4 254.2 238.5 304.9l8.4 3.3v0.2l-6.6 6c-43.8 39.3-69 95.4-69 153.9 0 113.9 92.7 206.6 206.6 206.6S688.3 693.9 688 580c0-58.5-25.1-114.6-69-153.9l-6.6-6v-0.2l8.4-3.3c7.2-2.9 12.9-5.2 17.8-7.5 4.4-2.1 6.7-4.8 6.8-8.1 0.1-2.5-0.9-5.2-2.5-7.5-0.2-0.2-0.3-0.4-0.5-0.6 0-0.1-0.1-0.1-0.1-0.2-0.4-0.7-0.6-1.4-0.7-2.2-0.3-3.2 2-6.1 5.2-6.4 2.6-0.3 5 1.2 6 3.6 2.7 4.1 4.4 8.9 4.2 14-0.2 4.3-2.2 12.5-13.4 17.8zM761.7 378.3c-112.6 0-204.2-91.6-204.2-204.2s91.6-204.2 204.2-204.2 204.2 91.6 204.2 204.2-91.6 204.2-204.2 204.2z m0-397c-106.3 0-192.8 86.5-192.8 192.8s86.5 192.8 192.8 192.8 192.8-86.5 192.8-192.8S868-18.7 761.7-18.7zM884.7 214.7c-0.8 2.2-2.1 4.1-3.9 5.6l-68.9 69.2c-4.4 5.5-12.4 6.5-18 2.3l-0.1-0.1c-2.3-1.9-4-4.3-4.7-7.2l-9.3-24.9c-2.9-6.3-7.4-11.3-13-14.6l-87.6-45.3c-7.1-3.1-10.4-11.3-7.5-18.5 0.9-2.1 2.2-3.9 3.8-5.3l27.9-28.1-65.5-94 96.6 62.8 32.7-32.9c2.5-2.9 6-4.6 9.8-4.9 3.9-0.3 7.6 0.9 10.5 3.3 1.5 1.2 2.8 2.7 3.8 4.7l48.2 84.9c3.7 5.8 9 10.7 15.1 14.2l22 10.9c6.9 2.7 10.5 10.4 8.2 17.6l-0.1 0.3z m-12.4-7.4L849.4 196l-0.2-0.1c-7.9-4.4-14.5-10.7-19.3-18.2l-48.4-85.3-0.1-0.3c-0.3-0.6-0.5-0.8-0.5-0.8l-0.5-0.4c-0.7-0.6-1.5-0.9-2.4-0.8-0.5 0-1.5 0.2-2.2 1.1l-39.7 39.9-55.8-36.3L718 149l-34.7 35-0.4 0.4c-0.2 0.3-0.5 0.7-0.7 1.1-0.6 1.4 0.1 3.2 1.6 3.8l0.2 0.1 88.1 45.8 0.2 0.1c7.7 4.4 13.9 11.3 17.8 19.9l9.8 26.1 0.1 0.4c0.1 0.4 0.3 0.8 0.7 1.1 0.7 0.5 1.7 0.4 2.3-0.4l0.2-0.3 69.6-69.9 0.4-0.4c0.4-0.3 0.6-0.6 0.8-1 0.4-1.4-0.4-3-1.7-3.5z"  horiz-adv-x="1024" />

    
    <glyph glyph-name="fenghuangxiangmutubiao_quanxian" unicode="&#59016;" d="M852.48 164.69333300000005h-238.933333c-18.773333 0-34.133333 15.36-34.133334 34.133334s15.36 34.133333 34.133334 34.133333h238.933333c18.773333 0 34.133333-15.36 34.133333-34.133333s-15.36-34.133333-34.133333-34.133334zM607.146667 165.54666699999996c-26.88 5.546667-36.693333 38.826667-17.92 58.453333l62.72 64.426667c8.533333 8.533333 20.48 12.373333 32.426666 9.813333 26.88-5.546667 36.693333-38.826667 17.92-58.453333l-62.72-64.426667c-8.533333-8.533333-20.906667-12.373333-32.426666-9.813333zM613.546667 113.493333h238.933333c18.773333 0 34.133333-15.36 34.133333-34.133333s-15.36-34.133333-34.133333-34.133333h-238.933333c-18.773333 0-34.133333 15.36-34.133334 34.133333s15.36 34.133333 34.133334 34.133333zM858.88 112.63999999999999c26.88-5.546667 36.693333-38.826667 17.92-58.453333l-62.72-64.426667c-8.533333-8.533333-20.48-12.373333-32.426667-9.813333-26.88 5.546667-36.693333 38.826667-17.92 58.453333l62.72 64.426667c8.533333 8.533333 20.906667 12.373333 32.426667 9.813333zM511.146667 810.666667c-136.533333 0-247.466667-110.933333-247.466667-247.466667s110.933333-247.466667 247.466667-247.466667 247.466667 110.933333 247.466666 247.466667-110.506667 247.466667-247.466666 247.466667z m0-426.666667c-98.986667 0-179.2 80.213333-179.2 179.2s80.213333 179.2 179.2 179.2 179.2-80.213333 179.2-179.2-80.213333-179.2-179.2-179.2zM175.786667-20.480000000000018c16.64 0 29.866667 13.653333 29.866666 30.293333v0.426667c0 168.533333 136.96 305.493333 305.493334 305.493333v68.266667c-206.506667 0-373.76-167.253333-373.76-373.76v-1.28c0-16.213333 13.653333-29.44 29.866666-29.44h8.533334z"  horiz-adv-x="1024" />

    
    <glyph glyph-name="daoru2" unicode="&#59018;" d="M1136.522971 516.154514l8.572343 7.168 1.404343 12.288a34.523429 34.523429 0 0 1-9.976686 25.336686C1087.780571 615.0144 834.121143 866.625829 534.469486 635.640686l-73.5232 87.625143a44.938971 44.938971 0 0 1-28.496457 18.753828c-17.554286 2.633143-33.938286-6.933943-44.383086-28.203886l-2.4576-4.827428-14.482286-313.051429c-0.146286-6.5536 0.585143-35.4304 17.495772-55.588571 17.759086-21.182171 50.088229-24.839314 56.173714-25.278172l319.926857-50.556342c7.899429-0.936229 25.629257-1.667657 38.560914 9.186742 10.064457 8.660114 14.394514 22.235429 11.234743 35.108572-1.989486 9.4208-7.314286 18.900114-16.530286 29.842286l-89.146514 106.261942c45.845943 40.521143 191.019886 145.788343 392.864914 67.408458 13.165714-5.090743 25.863314-3.6864 34.816 3.803428zM371.0976 395.907657l14.482286 313.051429 2.4576 4.827428c3.510857 7.460571 8.513829 14.1312 14.7456 19.573029 8.133486 7.138743 19.017143 10.298514 29.725257 8.630857 15.067429-2.2528 24.634514-13.399771 28.496457-18.724571l73.552457-87.712915c299.6224 231.043657 553.252571-20.567771 602.024229-74.605714 6.670629-6.729143 10.269257-15.915886 9.976685-25.365943l-1.375085-12.346514-8.543086-7.168c-9.0112-7.5776-21.679543-8.923429-34.816-3.803429-192.833829 74.839771-333.882514-17.759086-386.135771-61.615543l-6.787658-5.851428 89.146515-106.261943c9.186743-10.942171 14.570057-20.392229 16.530285-29.842286 3.189029-12.873143-1.170286-26.477714-11.234742-35.108571-12.960914-10.8544-30.661486-10.122971-38.560915-9.186743l-319.926857 50.644114c-6.144 0.497371-38.414629 4.096-56.173714 25.278172-16.910629 20.158171-17.642057 49.034971-17.554286 55.588571z m78.613943-14.5408l2.808686-0.234057 2.779428-0.438857 254.332343-40.228572-93.330286 111.177143 48.566857 42.920229 8.104229 6.9632c46.928457 39.380114 156.320914 113.312914 307.463314 105.033143-96.782629 60.913371-242.307657 101.9904-405.269943-23.639772l-50.527085-38.941257-75.9808 90.5216-11.029943-238.738286c-0.058514-4.681143 1.053257-10.357029 0.380343-10.912914l-0.175543-0.087771c3.715657-1.784686 7.753143-2.925714 11.8784-3.393829zM974.789486 403.426743c-18.344229 0-33.236114-14.862629-33.236115-33.206857V4.827429a66.472229 66.472229 0 0 0-66.501485-66.413715h-731.428572a66.472229 66.472229 0 0 0-66.472228 66.413715V735.553829a66.472229 66.472229 0 0 0 66.472228 66.413714h365.714286a33.236114 33.236114 0 1 1 0 66.442971H143.652571a133.061486 133.061486 0 0 1-132.973714-132.827428V4.827429A133.061486 133.061486 0 0 1 143.623314-128h731.428572a133.061486 133.061486 0 0 1 133.002971 132.856686V370.219886c0 18.344229-14.921143 33.206857-33.265371 33.206857z"  horiz-adv-x="1170" />

    
    <glyph glyph-name="daoru3" unicode="&#59083;" d="M919.251863 513.973279q0.284437 7.39535 0.284436 14.733812a367.264465 367.264465 0 1 1-734.585817 0q0-7.281576 0.284437-14.733812a241.259076 241.259076 0 0 1 55.977112-475.919225h65.249743v75.091248H241.268918a166.167829 166.167829 0 0 0-12.628983 331.880558l39.821116 3.015028-5.68873 39.821116a296.724202 296.724202 0 0 0-2.901253 41.015749 292.230105 292.230105 0 0 0 584.403322 0 296.382878 296.382878 0 0 0-2.901253-41.015749l-5.688731-39.821116 39.821116-3.015028a166.167829 166.167829 0 0 0-12.628982-331.880558h-64.453321v-75.091248h64.794645a241.259076 241.259076 0 0 1 55.977112 475.862337zM584.6976 339.613677a42.665482 42.665482 0 0 1-64.908419 0l-130.84081-150.92203a45.509847 45.509847 0 0 1-11.377461-30.264048 44.485875 44.485875 0 0 1 43.575678-45.22541 42.836143 42.836143 0 0 1 32.425766 15.018249l54.782478 63.144913v-274.196828a43.575678 43.575678 0 1 1 87.151357 0v274.424377l54.782478-63.144912a42.665482 42.665482 0 0 1 32.368879-15.01825 44.485875 44.485875 0 0 1 43.689453 45.22541 46.306269 46.306269 0 0 1-11.377462 30.264049z"  horiz-adv-x="1104" />

    
    <glyph glyph-name="daochu2" unicode="&#59084;" d="M919.24456 513.976313q0.284434 7.395291 0.284435 14.733696a367.261547 367.261547 0 1 1-734.579982 0q0-7.281518 0.284434-14.733696a241.25716 241.25716 0 0 1 55.976667-475.915443h65.249225v75.090651H241.267001a166.166509 166.166509 0 0 0-12.628882 331.877922l39.8208 3.015003-5.688686 39.8208a296.721845 296.721845 0 0 0-2.90123 41.015424 292.227783 292.227783 0 0 0 584.39868 0 296.380524 296.380524 0 0 0-2.90123-41.015424l-5.688685-39.8208 39.820799-3.015003a166.166509 166.166509 0 0 0-12.628882-331.877922h-64.452809v-75.090651h64.79413a241.25716 241.25716 0 0 1 55.976667 475.858557zM584.692956-113.030622a42.665143 42.665143 0 0 0-64.907904 0l-130.839771 150.920831a45.509485 45.509485 0 0 0-11.377371 30.263808 44.485522 44.485522 0 0 0 43.575332 45.225051 42.835803 42.835803 0 0 0 32.425509-15.01813l54.782043-63.144411v274.194649a43.575332 43.575332 0 1 0 87.150664 0v-274.36531l54.782043 63.144411a42.665143 42.665143 0 0 0 32.368622 15.01813 44.485522 44.485522 0 0 0 43.689106-45.225051 46.305901 46.305901 0 0 0-11.377371-30.263807z"  horiz-adv-x="1104" />

    
    <glyph glyph-name="yemiancaozuo" unicode="&#59019;" d="M626.102857-125.62285699999995a388.388571 388.388571 0 0 0-230.582857 75.52 103.314286 103.314286 0 0 0-24.502857 18.285714L356.571429-18.285713999999984c-4.754286 4.205714-9.874286 9.508571-14.994286 14.811428L106.422857 232.411429a106.971429 106.971429 0 0 0 0 150.857142 166.948571 166.948571 0 0 0 235.702857 0l9.508572-9.691428V772.205714a121.417143 121.417143 0 1 0 242.834285 0v-196.937143a115.565714 115.565714 0 0 0 96.548572-8.96l199.862857-115.382857a115.382857 115.382857 0 0 0 57.782857-95.268571v-158.537143a323.108571 323.108571 0 0 0-322.56-322.742857z m-402.285714 484.388571a93.257143 93.257143 0 0 1-66.011429-27.245714 33.645714 33.645714 0 0 1 0-47.36l235.885715-235.885714c4.754286-5.12 8.96-9.325714 13.348571-13.348572l15.36-15.36a33.462857 33.462857 0 0 1 8.594286-5.851428 32 32 0 0 0 5.302857-3.291429 315.611429 315.611429 0 0 1 189.44-62.902857 249.965714 249.965714 0 0 1 249.965714 249.6v156.891429a42.605714 42.605714 0 0 1-21.394286 33.645714l-199.862857 115.382857a43.154286 43.154286 0 0 1-58.88-15.725714l-6.034285-10.605715a36.571429 36.571429 0 0 0-41.142858-17.005714 36.571429 36.571429 0 0 0-27.062857 35.291429V772.205714a48.274286 48.274286 0 0 1-96.548571 0V285.25714300000004a36.571429 36.571429 0 0 0-62.354286-25.782857l-72.045714 72.045714a93.988571 93.988571 0 0 1-66.194286 27.245714z"  horiz-adv-x="1024" />

    
    <glyph glyph-name="xinzeng1" unicode="&#59020;" d="M102.4 337.646933h819.2a51.2 51.2 0 1 1 0 102.4H102.4a51.2 51.2 0 0 1 0-102.4zM460.8-20.753067v819.2a51.2 51.2 0 1 0 102.4 0v-819.2a51.2 51.2 0 0 0-102.4 0z"  horiz-adv-x="1024" />

    
    <glyph glyph-name="tupianshangchuan" unicode="&#59021;" d="M758.1 498.5H756c-14.8 123.8-120.2 219.7-247.9 219.7-127.8 0-233.2-96-247.9-219.8C151.3 495.2 64 406 64 296.4c0-111.6 90.5-202 202-202h205.8V298.2L371.6 198c-15-15-39.3-15-54.4 0-15 15-15 39.3 0 54.4L476.8 412c1.7 2.9 3.7 5.7 6.2 8.2 7.8 7.8 18 11.5 28.1 11.2 10.2 0.3 20.4-3.5 28.1-11.2 2.5-2.5 4.6-5.2 6.2-8.2L705 252.4c15-15 15-39.3 0-54.4-15-15-39.3-15-54.4 0L548.7 300.1v-205.8h209.4c111.6 0 202 90.5 202 202 0.1 111.7-90.4 202.2-202 202.2z"  horiz-adv-x="1024" />

    
    <glyph glyph-name="ziyuan1" unicode="&#59022;" d="M504.766163 853.237438a339.762865 339.762865 0 1 1-69.36479-623.037038 337.270716 337.270716 0 0 1 132.083852 73.103012l60.226914-57.942444-6.022692-6.230371a58.773161 58.773161 0 0 1 1.661432-83.071605L890.218411-102.08601999999996a93.663235 93.663235 0 0 1 130.630098 1.246074l1.453754 1.453753a93.455556 93.455556 0 0 1-2.699828 132.083852L752.942583 289.596597a58.98084 58.98084 0 0 1-83.071605-1.661432l-7.061086-7.268765L602.998336 338.608844A339.555186 339.555186 0 0 1 504.766163 853.237438z m188.364865-602.269137l7.061086 7.476444a16.822 16.822 0 0 0 23.675407 0l266.867532-255.029827a51.919753 51.919753 0 0 0-72.687655-73.933729l-207.679012 199.787211 51.089037 50.881358L732.797719 209.432498l-51.919753-51.712074-28.867383 27.828988a16.614321 16.614321 0 0 0 0 23.675407l6.022691 6.43805z m-65.834247 386.906A298.227062 298.227062 0 1 0 79.439545 698.724252a293.658124 293.658124 0 0 0 50.881358 67.703358 298.434741 298.434741 0 0 0 496.975878-128.553309zM486.698089 767.673684a20.767901 20.767901 0 0 0-31.359531-14.537531 225.954766 225.954766 0 0 1-114.638815 30.944173 220.555111 220.555111 0 0 1-56.488691-7.268765 20.767901 20.767901 0 0 0-26.167556 23.05237 20.767901 20.767901 0 0 0 14.74521 16.822 263.752346 263.752346 0 0 0 67.911037 8.930198 267.07521 267.07521 0 0 0 136.445111-37.174543 20.767901 20.767901 0 0 0 9.553235-20.767902zM165.003298 374.12195499999996A20.767901 20.767901 0 0 0 137.174311 375.57570899999996a264.583062 264.583062 0 0 0-25.959877 34.682395A20.767901 20.767901 0 0 0 116.614089 437.879412a20.767901 20.767901 0 0 0 29.490419-4.776617 225.747087 225.747087 0 0 1 20.767902-28.867383 20.767901 20.767901 0 0 0-1.869112-30.113457z"  horiz-adv-x="1050" />

    
    <glyph glyph-name="xiugai1" unicode="&#59365;" d="M855.04-98.304H174.08c-78.848 0-143.36 64.512-143.36 143.36v680.96c0 78.848 64.512 143.36 143.36 143.36h578.56c22.528 0 40.96-18.432 40.96-40.96s-18.432-40.96-40.96-40.96H174.08c-33.792 0-61.44-27.648-61.44-61.44v-680.96c0-33.792 27.648-61.44 61.44-61.44h680.96c33.792 0 61.44 27.648 61.44 61.44v450.56c0 22.528 18.432 40.96 40.96 40.96s40.96-18.432 40.96-40.96v-450.56c0-78.848-64-143.36-143.36-143.36zM378.368 138.24c-10.24 0-20.992 4.096-29.184 11.776-15.872 15.872-15.872 41.984 0 57.856L928.768 787.456c15.872 15.872 41.984 15.872 57.856 0 15.872-15.872 15.872-41.984 0-57.856L407.552 150.016c-8.192-7.68-18.432-11.776-29.184-11.776z"  horiz-adv-x="1024" />

    
    <glyph glyph-name="xinzeng2" unicode="&#59023;" d="M465.454545 430.545455V756.363636a46.545455 46.545455 0 0 0 93.09091 0v-325.818181h325.818181a46.545455 46.545455 0 0 0 0-93.09091H558.545455v-325.818181a46.545455 46.545455 0 0 0-93.09091 0V337.454545H139.636364a46.545455 46.545455 0 0 0 0 93.09091z"  horiz-adv-x="1024" />

    
    <glyph glyph-name="sousuo3" unicode="&#59024;" d="M174.545455 430.545455c0 18.618182 16.290909 34.909091 34.90909 34.90909s34.909091-16.290909 34.909091-34.90909c0-121.018182 100.072727-221.090909 221.090909-221.09091 18.618182 0 34.909091-16.290909 34.909091-34.90909s-16.290909-34.909091-34.909091-34.909091c-160.581818 0-290.909091 130.327273-290.90909 290.909091zM465.454545 69.818182c200.145455 0 360.727273 160.581818 360.727273 360.727273S665.6 791.272727 465.454545 791.272727 104.727273 630.690909 104.727273 430.545455 265.309091 69.818182 465.454545 69.818182z m323.49091 76.8l172.218181-172.218182c13.963636-13.963636 13.963636-34.909091 0-48.872727-13.963636-13.963636-34.909091-13.963636-48.872727 0l-174.545454 174.545454c-74.472727-60.509091-169.890909-97.745455-272.29091-97.745454C228.072727 0 34.909091 193.163636 34.909091 430.545455S228.072727 861.090909 465.454545 861.090909 896 667.927273 896 430.545455c0-109.381818-39.563636-209.454545-107.054545-283.927273z"  horiz-adv-x="1024" />

    
    <glyph glyph-name="lunkuodasan-" unicode="&#59026;" d="M835.490909 507.345455l-32.581818 32.581818 114.036364 114.036363a11.636364 11.636364 0 0 1 0 16.290909l-114.036364 116.363637 32.581818 32.581818 114.036364-114.036364a58.181818 58.181818 0 0 0 0-81.454545zM835.490909-51.2l-32.581818 32.581818 114.036364 114.036364a11.636364 11.636364 0 0 1 0 16.290909l-114.036364 114.036364 32.581818 32.581818 114.036364-114.036364a58.181818 58.181818 0 0 0 0-81.454545zM935.563636 81.454545h-123.345454a300.218182 300.218182 0 0 0-235.054546 111.709091L293.236364 544.581818A253.672727 253.672727 0 0 1 93.090909 640H51.2V686.545455H93.090909a300.218182 300.218182 0 0 0 235.054546-111.709091l286.254545-351.418182a253.672727 253.672727 0 0 1 197.818182-95.418182h121.018182zM93.090909 81.454545H51.2v46.545455H93.090909a253.672727 253.672727 0 0 1 197.818182 95.418182l288.581818 351.418182a300.218182 300.218182 0 0 0 232.727273 111.709091h121.018182v-46.545455h-121.018182a253.672727 253.672727 0 0 1-197.818182-95.418182L328.145455 193.163636A300.218182 300.218182 0 0 0 93.090909 81.454545z"  horiz-adv-x="1024" />

    
    <glyph glyph-name="daochu3" unicode="&#59027;" d="M684.078604 136.311724a41.803176 41.803176 0 0 1 41.682706-40.718944 42.044117 42.044117 0 0 1 30.238032 13.010787L967.183687 329.786943a79.028483 79.028483 0 0 1 0 107.579931L755.999342 659.754952a41.923646 41.923646 0 0 1-59.030422 1.445643 41.923646 41.923646 0 0 1-1.445643-59.030421L863.338333 426.163141H368.446554a41.803176 41.803176 0 1 1 0-83.485882h494.891779L695.523277 166.188346a41.562236 41.562236 0 0 1-11.444673-29.876622zM703.474314 895.997109h-493.928017C113.531509 895.997109 35.346318 814.800162 35.346318 715.291737v-660.17696C35.346318-45.59835 114.25433-128 211.35335-128h492.120964a162.755305 162.755305 0 0 1 128.180344 67.222398A224.436072 224.436072 0 0 1 878.638055 75.95613a41.682706 41.682706 0 0 1-83.365412 0 139.986428 139.986428 0 0 0-29.635681-85.051995A81.678828 81.678828 0 0 0 703.474314-43.670826H211.35335a96.376198 96.376198 0 0 0-92.52115 98.785603V715.291737a94.448674 94.448674 0 0 0 90.955037 97.580901h493.928017c50.717974 0 89.509394-38.67095 92.28021-92.28021a36.141074 36.141074 0 0 1 0-3.614108l1.084233-28.551449 82.52212 1.566113v24.09405A186.247004 186.247004 0 0 1 829.245253 842.508319 172.272455 172.272455 0 0 1 703.474314 895.997109z"  horiz-adv-x="1024" />

    
    <glyph glyph-name="xiugai2" unicode="&#59028;" d="M922.048-14.72a34.496 34.496 0 0 0-29.376-15.808H130.24a34.496 34.496 0 0 0-29.376 15.808 29.824 29.824 0 0 0 0 31.68 34.432 34.432 0 0 0 29.376 16.064h762.368a34.432 34.432 0 0 0 29.376-15.808 29.696 29.696 0 0 0 0.064-31.936z m-388.672 247.104a234.624 234.624 0 0 0-128-59.328l-82.688-6.912c-40.064-3.264-62.08-5.12-66.24-5.12a32.384 32.384 0 0 0-22.72 9.344c-10.816 10.752-10.816 10.752-4.352 88.768l6.912 82.56a234.688 234.688 0 0 0 59.392 128l304.128 303.808a97.984 97.984 0 0 0 134.848 0l102.848-102.784a95.168 95.168 0 0 0 0-134.4z m259.136 393.6l-102.912 102.784a32 32 0 0 1-44.8 0l-304-303.744a169.28 169.28 0 0 1-40.96-88.384l-6.976-82.496-2.176-26.752 26.752 2.176 82.688 6.912a169.728 169.728 0 0 1 88.384 40.96l304.064 303.744a32 32 0 0 1-0.128 44.8z"  horiz-adv-x="1024" />

    
    <glyph glyph-name="xiugai3" unicode="&#59029;" d="M326.4 329.6L273.92 128a32 32 0 0 1 31.36-40.96h12.8l180.48 49.28h5.76l495.36 512a82.56 82.56 0 0 1 21.76 64 103.04 103.04 0 0 1-28.16 70.4l-47.36 55.04a97.28 97.28 0 0 1-64 30.08 81.92 81.92 0 0 1-56.96-23.68l-494.72-512z m623.36 380.8l-48.64-50.56-80 84.48 48.64 50.56a23.04 23.04 0 0 0 31.36 0l47.36-48a28.8 28.8 0 0 0 7.68-18.56 22.4 22.4 0 0 0-5.12-14.08zM414.72 320L768 691.2l80-84.48-353.28-368.64z m-64-149.76l26.24 97.92 68.48-72.32z m622.72 332.16a26.24 26.24 0 0 1-21.76-7.68 32 32 0 0 1-11.52-27.52v-478.08a46.08 46.08 0 0 0-44.16-45.44H128a43.52 43.52 0 0 0-30.72 14.08 44.8 44.8 0 0 0-12.8 31.36V773.76a44.8 44.8 0 0 0 12.8 32A42.88 42.88 0 0 0 128 819.2h505.6a34.56 34.56 0 0 1 32 35.84 37.12 37.12 0 0 1-9.6 24.96 37.76 37.76 0 0 1-30.08 10.24H120.96a110.08 110.08 0 0 1-78.08-32 113.28 113.28 0 0 1-32-78.72v-790.4a107.52 107.52 0 0 1 30.72-78.08 104.96 104.96 0 0 1 76.8-33.28H896a108.16 108.16 0 0 1 106.88 110.08V468.48a33.92 33.92 0 0 1-9.6 24.96 35.2 35.2 0 0 1-24.96 10.24z m0 5.12"  horiz-adv-x="1024" />

    
    <glyph glyph-name="quanxianguanli" unicode="&#59030;" d="M227.555556 618.496v-186.88a341.333333 341.333333 0 0 1 140.572444-276.024889L512 50.915556l143.872 104.675555A341.333333 341.333333 0 0 1 796.444444 431.616V618.496l-284.444444 108.088889-284.444444-108.088889z m-56.888889 39.253333L512 787.342222l341.333333-129.706666v-226.076445a398.222222 398.222222 0 0 0-164.010666-321.991111L512-19.456l-177.322667 128.967111A398.222222 398.222222 0 0 0 170.666667 431.616V657.749333zM512 355.555556a113.777778 113.777778 0 1 0 0 227.555555 113.777778 113.777778 0 0 0 0-227.555555z m0 56.888888a56.888889 56.888889 0 1 1 0 113.777778 56.888889 56.888889 0 0 1 0-113.777778zM483.555556 384m28.444444 0l0 0q28.444444 0 28.444444-28.444444l0-145.863112q0-28.444444-28.444444-28.444444l0 0q-28.444444 0-28.444444 28.444444l0 145.863112q0 28.444444 28.444444 28.444444ZM597.333333 310.556444m0-28.444444l0 0q0-28.444444-28.444444-28.444444l-54.044445 0q-28.444444 0-28.444444 28.444444l0 0q0 28.444444 28.444444 28.444444l54.044445 0q28.444444 0 28.444444-28.444444Z"  horiz-adv-x="1024" />

    
    <glyph glyph-name="daoru4" unicode="&#59204;" d="M135.63636347 395.65909131v-309.19090957c0-43.52727305 35.30454521-78.83181826 78.83181827-78.83181827h595.06363652a78.83181826 78.83181826 0 0 1 78.83181826 78.83181827V681.53181826A78.83181826 78.83181826 0 0 1 809.53181826 760.36363653h-284.27727305a32.72727305 32.72727305 0 0 0 0 65.45454521h284.27727305A144.28636348 144.28636348 0 0 0 953.81818174 681.53181826v-595.06363652a144.28636348 144.28636348 0 0 0-144.28636348-144.28636348H214.46818174A144.28636348 144.28636348 0 0 0 70.18181826 86.46818173999998v309.19090957a32.72727305 32.72727305 0 1 0 65.45454522 0zM101.15 719.4954547899999l15.13636347-0.81818174a423.9 423.9 0 0 0 396.24545479-358.56818174 32.72727305 32.72727305 0 0 1 64.67727305 9.98181738A489.35454521 489.35454521 0 0 1 119.84545479 784.05l-15.17727305 0.81818174A32.72727305 32.72727305 0 0 1 101.15 719.45454521zM542.96818174 370.45909130999996l-139.90909043 76.45909043a32.72727305 32.72727305 0 0 1-31.37727305-57.43636348l149.89090869-81.94090957a53.18181826 53.18181826 0 0 1 70.15909131 17.79545479l93.68181827 144.81818173a32.72727305 32.72727305 0 0 1-54.98181827 35.59090958l-87.46363652-135.28636348z"  horiz-adv-x="1024" />

    
    <glyph glyph-name="ziyuanxcx" unicode="&#59031;" d="M903.724479 30.83191499999998a116.675455 116.675455 0 0 1-15.925774 29.807598l-1.362633 1.703291a119.230392 119.230392 0 0 1-57.997069 40.453169v59.615196h42.582283a35.769118 35.769118 0 0 1 35.769117 35.769117 34.917472 34.917472 0 0 1-34.661978 34.832307h-43.859751v37.131751a35.769118 35.769118 0 0 1-71.538235 0v-167.263207a119.230392 119.230392 0 0 1-57.82674-40.197675l-1.447798-1.788456a115.483151 115.483151 0 0 1-16.010938-29.807598c-0.681317-1.87362-1.192304-3.832405-1.703291-5.706025a113.77986 113.77986 0 0 1-5.791191-34.661979 118.549075 118.549075 0 0 1 118.549075-118.549075 116.334797 116.334797 0 0 1 23.931243 2.384608 116.675455 116.675455 0 0 1 88.996971 150.656116c-0.510987 1.788456-1.021975 3.747241-1.703291 5.620862z m-111.139758-90.955756a50.672917 50.672917 0 1 0 51.098739 50.672916 50.672917 50.672917 0 0 0-51.098739-50.672916zM911.38929 629.964633A264.010153 264.010153 0 1 1 482.756031 425.569676a537.303244 537.303244 0 0 1-371.913657-510.902229 42.582283 42.582283 0 1 1 85.164565 0 451.968349 451.968349 0 0 0 451.372198 451.372198 264.010153 264.010153 0 0 1 264.010153 263.924988zM647.975289 451.119046h-1.532963a169.818144 169.818144 0 1 0 1.532963 0z"  horiz-adv-x="1024" />

    
    <glyph glyph-name="xiugai4" unicode="&#59032;" d="M940.8 435.2c-19.2 0-38.4-12.8-38.4-32v-38.4c0-19.2 19.2-32 38.4-32s38.4 12.8 38.4 32v38.4c0 19.2-19.2 32-38.4 32zM998.4 876.8c-12.8 19.2-38.4 19.2-57.6 0L384 320c-19.2-12.8-19.2-38.4 0-57.6 12.8-19.2 38.4-19.2 57.6 0l556.8 556.8c19.2 12.8 19.2 38.4 0 57.6zM947.2 268.8c-25.6 0-38.4-19.2-38.4-38.4v-204.8c0-32-25.6-64-64-64H147.2c-32 0-64 25.6-64 64V723.2c0 32 25.6 64 64 64H576c19.2 0 38.4 19.2 38.4 38.4S595.2 864 576 864H147.2C70.4 864 6.4 800 6.4 723.2v-704c0-76.8 64-140.8 140.8-140.8h697.6c76.8 0 140.8 64 140.8 140.8v211.2c0 25.6-19.2 38.4-38.4 38.4z"  horiz-adv-x="1024" />

    
    <glyph glyph-name="guanbi3" unicode="&#59034;" d="M817.162486 632.139756H372.751947c-26.736521 0-48.510389-21.753537-48.510388-48.510389v-432.629067c0-26.744653 21.773868-48.510389 48.510388-48.510389h444.412572c26.734488 0 48.510389 21.765736 48.510389 48.510389V583.629367c0 26.756851-21.775901 48.510389-48.512422 48.510389z m6.204841-481.139456a6.194676 6.194676 0 0 0-6.204841-6.219072H372.751947a6.196709 6.196709 0 0 0-6.208907 6.219072V583.629367a6.227204 6.227204 0 0 0 6.208907 6.239403h444.412572c3.437872 0 6.204841-2.809663 6.204841-6.239403v-432.629067zM746.920924 512.84295c-8.516408 8.518441-22.320756 8.518441-30.837164 0l-121.254625-121.24446-121.244459 121.24446c-8.518441 8.518441-22.31669 8.518441-30.835131 0-8.518441-8.518441-8.518441-22.31669 0-30.835132l121.244459-121.250558-121.25869-121.256657c-8.518441-8.516408-8.518441-22.318723 0-30.837165 4.259221-4.259221 9.837885-6.387814 15.418582-6.387814s11.159361 2.128594 15.418582 6.387814l121.254624 121.258691 121.254625-121.258691c4.259221-4.259221 9.839918-6.387814 15.418582-6.387814s11.159361 2.128594 15.418582 6.387814c8.516408 8.518441 8.516408 22.320756 0 30.837165l-121.254625 121.256657 121.254625 121.250558c8.518441 8.520474 8.518441 22.31669 0.002033 30.835132z"  horiz-adv-x="1219" />

    
    <glyph glyph-name="daoru5" unicode="&#59035;" d="M330.5 421.7c-7.6 17.8-28.1 26.1-45.9 18.5-17.8-7.6-26.1-28.1-18.5-45.9l90.6-213.2c5.7-13.3 18.6-21.3 32.2-21.3 4.6 0 9.2 0.9 13.7 2.8l229.5 97.5c17.8 7.6 26.1 28.1 18.5 45.9-7.6 17.8-28.1 26.1-45.9 18.5l-152.3-64.7C517.1 416 669.7 644.5 921.5 717.6c18.6 5.4 29.2 24.8 23.9 43.4-5.4 18.6-24.8 29.2-43.4 23.9-71.8-20.8-140.5-54.2-204.2-99.1C641.6 646.2 589 597.5 541.6 541c-63.1-75-117.3-165-153.9-254l-57.2 134.7zM925.8 365.2c-19.3 0-35-15.7-35-35v-278.4H133.2V608.6h269c19.3 0 35 15.7 35 35s-15.7 35-35 35h-304c-19.3 0-35-15.7-35-35v-626.8c0-19.3 15.7-35 35-35h827.5c19.3 0 35 15.7 35 35V330.2c0.1 19.3-15.6 35-34.9 35z"  horiz-adv-x="1024" />

    
    <glyph glyph-name="shuaxin1" unicode="&#59036;" d="M514.024727 872.727273c170.845091 0 321.861818-94.021818 403.409455-235.776l70.865454 17.501091a23.272727 23.272727 0 0 0 28.392728-27.229091l-45.661091-225.117091a44.869818 44.869818 0 0 0-33.489455-34.676364 49.617455 49.617455 0 0 0-47.522909 13.986909l-164.189091 172.334546a23.272727 23.272727 0 0 0 11.287273 38.632727l85.317818 21.108364C754.525091 714.379636 640.977455 779.636364 514.024727 779.636364 307.502545 779.636364 139.636364 607.953455 139.636364 395.636364 139.636364 183.319273 307.502545 11.636364 514.024727 11.636364a366.545455 366.545455 0 0 1 228.375273 79.685818 46.545455 46.545455 0 1 0 57.716364-73.029818A459.589818 459.589818 0 0 0 514.048-81.454545C255.604364-81.454545 46.545455 132.375273 46.545455 395.636364S255.604364 872.727273 514.024727 872.727273z"  horiz-adv-x="1024" />

    
    <glyph glyph-name="suoping" unicode="&#59037;" d="M512 259.072m-75.776 0a75.776 75.776 0 1 1 151.552 0 75.776 75.776 0 1 1-151.552 0ZM526.848 60.928h-29.696c-9.728 0-17.408 7.68-17.408 17.408v154.624c0 9.728 7.68 17.408 17.408 17.408h29.696c9.728 0 17.408-7.68 17.408-17.408v-154.624c0-9.216-7.68-17.408-17.408-17.408zM853.504 554.496h-104.448V658.944C749.056 789.504 642.56 896 512 896S274.944 789.504 274.944 658.944v-104.448H170.496c-62.464 0-113.664-51.2-113.664-113.664v-455.168c0-62.464 51.2-113.664 113.664-113.664h682.496c62.464 0 113.664 51.2 113.664 113.664V440.832c0.512 62.464-50.688 113.664-113.152 113.664zM339.456 658.944c0 95.232 77.312 172.544 172.544 172.544s172.544-77.312 172.544-172.544v-104.448H339.456V658.944z m563.2-673.28c0-27.136-22.016-49.152-49.152-49.152H170.496c-27.136 0-49.152 22.016-49.152 49.152V440.832c0 27.136 22.016 49.152 49.152 49.152h682.496c27.136 0 49.152-22.016 49.152-49.152v-455.168z"  horiz-adv-x="1024" />

    
    <glyph glyph-name="yemianpeizhi" unicode="&#59038;" d="M853.33 746.67H170.67C111.85 746.67 64 698.81 64 640v-512c0-58.81 47.85-106.67 106.67-106.67h682.67C912.15 21.33 960 69.19 960 128V640c0 58.81-47.85 106.67-106.67 106.67z m64-618.67c0-35.29-28.71-64-64-64H170.67c-35.29 0-64 28.71-64 64V640c0 35.29 28.71 64 64 64h682.67c35.29 0 64-28.71 64-64v-512zM309.33 506.12v59.3c0 11.79-9.55 21.33-21.33 21.33s-21.33-9.54-21.33-21.33v-59.29c-24.8-8.82-42.67-32.26-42.67-60.08 0-27.83 17.87-51.27 42.67-60.08v-183.38c0-11.79 9.55-21.33 21.33-21.33s21.33 9.54 21.33 21.33V385.96c24.8 8.82 42.66 32.26 42.66 60.08s-17.86 51.26-42.66 60.08zM533.33 378.12v187.3c0 11.79-9.55 21.33-21.33 21.33s-21.33-9.54-21.33-21.33v-187.29c-24.8-8.82-42.67-32.26-42.67-60.08 0-27.83 17.87-51.27 42.67-60.08v-55.38c0-11.79 9.55-21.33 21.33-21.33s21.33 9.54 21.33 21.33v55.38c24.8 8.82 42.66 32.26 42.66 60.08s-17.86 51.25-42.66 60.07zM757.33 506.12v59.3c0 11.79-9.55 21.33-21.33 21.33s-21.33-9.54-21.33-21.33v-59.29c-24.8-8.82-42.67-32.26-42.67-60.08 0-27.83 17.87-51.27 42.67-60.08v-183.38c0-11.79 9.55-21.33 21.33-21.33s21.33 9.54 21.33 21.33V385.96c24.8 8.82 42.66 32.26 42.66 60.08s-17.86 51.26-42.66 60.08z"  horiz-adv-x="1024" />

    
    <glyph glyph-name="shouye-mianxing" unicode="&#59039;" d="M560.030476 851.626667a77.190095 77.190095 0 0 1-103.716571 0L36.912762 453.290667a38.66819 38.66819 0 0 1 51.785143-57.490286l6.680381 6.339048v-415.646477a77.385143 77.385143 0 0 1 77.287619-77.531428h225.28v232.984381a54.467048 54.467048 0 0 0 54.515809 54.613333h105.959619a54.467048 54.467048 0 0 0 54.51581-54.613333v-232.935619h230.546286a77.385143 77.385143 0 0 1 77.385142 77.482666v410.575238c17.212952-15.555048 41.593905-14.384762 55.881143 1.560381a38.66819 38.66819 0 0 1-2.779428 54.613334L560.030476 851.626667z"  horiz-adv-x="1024" />

    
    <glyph glyph-name="sousuo4" unicode="&#59041;" d="M592.592593 312.888889m-402.962963 0a402.962963 402.962963 0 1 1 805.925926 0 402.962963 402.962963 0 1 1-805.925926 0ZM284.444444 308.148148a56.888889 56.888889 0 1 0 0 113.777778 56.888889 56.888889 0 0 0 0-113.777778zM483.555556 308.148148a56.888889 56.888889 0 1 0 0 113.777778 56.888889 56.888889 0 0 0 0-113.777778zM682.666667 308.148148a56.888889 56.888889 0 1 0 0 113.777778 56.888889 56.888889 0 0 0 0-113.777778zM747.406222 66.512593a37.925926 37.925926 0 1 0 53.636741 53.63674L908.325926 12.875852a37.925926 37.925926 0 1 0-53.636741-53.636741L747.406222 66.512593zM474.074074-71.111111C222.72-71.111111 18.962963 132.645926 18.962963 384S222.72 839.111111 474.074074 839.111111s455.111111-203.757037 455.111111-455.111111-203.757037-455.111111-455.111111-455.111111z m0 75.851852c209.455407 0 379.259259 169.803852 379.259259 379.259259S683.529481 763.259259 474.074074 763.259259 94.814815 593.455407 94.814815 384s169.803852-379.259259 379.259259-379.259259z"  horiz-adv-x="1024" />

    
    <glyph glyph-name="kanjiajieguochaxun" unicode="&#59004;" d="M511.973906 729.14392c57.933457 0 114.12934-11.343349 167.027108-33.716916 51.101865-21.614274 97.002264-52.5611 136.425136-91.980901 39.421848-39.420825 70.373791-85.319178 91.991134-136.420019 22.376637-52.895721 33.723056-109.09672 33.723056-167.039387 0-57.936527-11.346419-114.130364-33.723056-167.026084-21.618367-51.096748-52.569286-96.992031-91.991134-136.411833-39.422871-39.418778-85.326341-70.364581-136.425136-91.977831-52.894697-22.37152-109.090581-33.715893-167.027108-33.715893-57.936527 0-114.130364 11.343349-167.021991 33.715893-51.096748 21.612227-96.987938 52.555983-136.40774 91.976808-39.416731 39.418778-70.361511 85.313038-91.974761 136.411833-22.369473 52.892651-33.712823 109.088534-33.712823 167.027108 0 57.944713 11.343349 114.145713 33.713846 167.040411 21.61325 51.101865 52.557006 97.000218 91.974761 136.420019 39.418778 39.418778 85.310991 70.366627 136.406716 91.979878C397.843542 717.800571 454.037379 729.14392 511.973906 729.14392M511.973906 749.610044c-248.28683 0-449.583438-201.303772-449.583438-449.626417 0-248.295016 201.296609-449.593671 449.583438-449.593671 248.281713 0 449.635627 201.301725 449.635627 449.594695C961.609533 548.306272 760.255619 749.610044 511.973906 749.610044L511.973906 749.610044zM788.331048 107.130318 347.37408 561.696234c0 0-126.941134-74.277704-113.799836-153.075351 17.176195-103.014188 239.118006-282.040584 239.118006-282.040584l47.827285 48.624441c0 0 24.863271 36.957727 47.819099 19.454074 22.955828-17.505699 149.978826-152.365176 149.978826-152.365176s34.012651-16.043395 60.444651 16.208147C799.617092 83.946292 788.331048 107.130318 788.331048 107.130318zM756.613672 69.779641c-13.556761-14.272052-27.115568-6.421246-27.115568-6.421246S588.832388 206.430928 569.658699 221.054997c-26.364461 16.652262-65.648163-30.682813-65.648163-30.682813l-33.139771-31.877011c13.080923-10.971889-205.64259 168.976506-215.989239 258.886235-5.79089 50.319036 93.659123 116.542296 92.14463 115.103528l421.434332-434.163237C768.460488 98.320675 771.966335 85.942763 756.613672 69.779641z"  horiz-adv-x="1024" />

    
    <glyph glyph-name="htmal5icon31" unicode="&#58947;" d="M513.783623 765.791449c-152.644539 0-281.283338-105.779162-322.692447-250.269997-37.023218-22.295795-58.671261-65.240887-58.671261-115.508757 0-72.89931 44.443212-132.010593 117.342522-132.010593 16.222473 0 29.335119 13.112646 29.335119 29.335119l0 205.349925c0 13.494339-9.578146 24.085558-22.002107 27.502377 42.832528 105.136525 141.707442 178.76443 256.68715 178.76443 114.979708 0 213.854623-73.627904 256.68715-178.76443-12.422937-3.416819-22.002107-14.008039-22.002107-27.502377l0-205.349925c0-16.222473 13.112646-29.335119 29.335119-29.335119 6.825452 0 12.93766 0.833995 19.25146 1.833765-9.488095-54.739718-32.476669-95.531773-55.920614-123.759675-14.622022-17.605983-29.616528-30.364565-41.253566-38.502919-5.818519-4.069689-10.344602-6.597255-13.751189-8.250918-1.703805-0.826831-3.096525-1.581008-3.666506-1.833765l-55.003731 0c-10.564613 30.631648-44.185338 53.17099-84.339874 53.17099-48.604998 0-88.007403-32.834826-88.007403-73.339332s39.402405-73.339332 88.007403-73.339332c40.154535 0 73.77526 22.540366 84.339874 53.17099l57.754379 0c9.915837 0 12.437264 2.638083 18.334577 5.500271 5.897314 2.862187 12.82612 6.782473 20.168342 11.917424 14.683421 10.269901 32.402991 25.247011 49.503461 45.836955 30.928407 37.238113 59.728336 92.562139 66.922179 166.847006 34.589796 22.957875 55.003731 64.293305 55.003731 112.75811 0 50.268894-21.648043 93.213985-58.671261 115.508757C795.067984 660.012288 666.428162 765.791449 513.783623 765.791449z"  horiz-adv-x="1024" />

    
    <glyph glyph-name="xitongcaozuorizhi" unicode="&#59025;" d="M1010 238.2l-131.4 131.7c-9 9.1-21.3 14.2-34.2 14.2L630 384.1c-29.8 0-54-24.1-54-53.8L576-72.2c0-29.7 24.2-53.8 54-53.8l340 0c29.8 0 54 24.1 54 53.8L1024 204.4C1024 217 1019 229.2 1010 238.2zM960-62l-320 0 0 382 197.9 0L960 197.7 960-62zM691.7 192l91.9 0c17.7 0 32 14.3 32 32s-14.3 32-32 32l-91.9 0c-17.7 0-32-14.3-32-32S674 192 691.7 192zM659.7 128c0-17.7 14.3-32 32-32l206.9 0c17.7 0 32 14.3 32 32s-14.3 32-32 32l-206.9 0C674 160 659.7 145.7 659.7 128zM898.6 64l-206.9 0c-17.7 0-32-14.3-32-32s14.3-32 32-32l206.9 0c17.7 0 32 14.3 32 32S916.2 64 898.6 64zM484 192l-68 0 0 64 64.9 0c17.7 0 32 14.3 32 32s-14.3 32-32 32L100.8 320c-20.3 0-36.8 16.5-36.8 36.8l0 374.5c0 20.3 16.5 36.8 36.8 36.8l566.5 0c20.3 0 36.8-16.5 36.8-36.8L704.1 477.5c0-17.7 14.3-32 32-32s32 14.3 32 32l0 253.8c0 55.6-45.2 100.8-100.8 100.8L100.8 832.1C45.2 832 0 786.8 0 731.3L0 356.8c0-55.6 45.2-100.8 100.8-100.8L352 256l0-64L224 192c-17.7 0-32-14.3-32-32s14.3-32 32-32l260 0c17.7 0 32 14.3 32 32S501.7 192 484 192z"  horiz-adv-x="1024" />

    
    <glyph glyph-name="caigou" unicode="&#58885;" d="M824.781726 630.110257l-83.570347 0C725.83211 748.610138 646.533043 833.066669 514.37714 833.066669c-132.158972 0-223.391836-84.457554-238.770082-202.957435L192.037734 630.109234c-46.49801 0-83.570347-31.487132-83.570347-77.599356l0-531.269879c0-46.188972 37.70167-83.566254 84.199681-83.566254l631.484302 0c46.49801 0 84.200704 37.377282 84.200704 83.566254l0 531.269879C908.352073 598.623126 871.278713 630.110257 824.781726 630.110257L824.781726 630.110257zM514.37714 797.250952c93.015464 0 174.48701-65.413825 191.018521-167.141718L311.421752 630.109234C327.948147 731.837126 421.358607 797.250952 514.37714 797.250952L514.37714 797.250952zM872.536356 9.304156c0-23.049972-24.543999-35.814694-47.75463-35.814694L192.037734-26.510538c-23.206538 0-47.75463 24.701588-47.75463 47.75463L144.283104 391.338129 872.536356 391.338129 872.536356 9.304156zM144.283104 427.153846 144.283104 546.53991c0 23.057135 25.172309 47.755654 48.378847 47.755654l84.198657 0 0-104.465237c0-22.614044 34.561144-25.595958 34.561144-2.981914L311.421752 594.29454l393.97391 0L705.395662 486.848413c0-23.788799 34.56012-20.806885 34.56012 2.981914L739.955782 594.295564l84.195587 0c23.210631 0 48.384987-24.698518 48.384987-47.755654l0-119.386064L144.283104 427.153846z"  horiz-adv-x="1024" />

    
    <glyph glyph-name="order" unicode="&#58887;" d="M898.702 831.356h-144.146c-12.76-1.291-18.14-15.861-18.14-15.861l-45.598-74.743c0 0-3.368-4.64-5.056-5.586-1.449-0.814-5.628-1.023-5.628-1.023h-337.435c0 0-3.176 0.365-4.348 1.023-0.861 0.483-3.077 2.343-3.077 2.343l-47.577 77.986c0 0-5.381 14.57-18.139 15.861l-143.737 0c-22.606 0-40.932-18.326-40.932-40.932v-812.96c0-22.607 18.326-40.932 40.932-40.932h772.881c22.607 0 40.932 18.325 40.932 40.932l0 812.96c0 22.606-18.325 40.932-40.932 40.932zM905.865-22.537c0-3.949-3.214-7.163-7.163-7.163h-772.881c-3.95 0-7.163 3.214-7.163 7.163l0 812.96c0 3.95 3.213 7.163 7.163 7.163h133.244l50.261-82.385 4.235-3.556c4.645-3.9 7.185-5.324 8.258-5.926 1.755-0.985 7.094-3.983 17.018-5.125l1.925-0.222 341.063 0.043c12.107 0.607 18.406 4.145 20.459 5.299 3.793 2.127 9.024 5.778 15.864 15.2l0.794 1.096 46.105 75.576h133.654c3.949 0 7.163-3.213 7.163-7.163l-0-812.96zM383.081 798.21h258.275c6.792 0 12.299 5.498 12.299 12.28v9.21c0 6.781-5.507 12.28-12.299 12.28h-258.275c-6.793 0-12.299-5.498-12.299-12.28v-9.21c0-6.782 5.506-12.28 12.299-12.28zM743.687 514.754h-462.937c-6.793 0-12.299-5.498-12.299-12.28v-9.21c0-6.781 5.506-12.28 12.299-12.28h462.937c6.792 0 12.299 5.498 12.299 12.28v9.21c0 6.781-5.507 12.28-12.299 12.28zM743.687 345.908h-462.937c-6.793 0-12.299-5.498-12.299-12.28v-9.21c0-6.782 5.506-12.28 12.299-12.28h462.937c6.792 0 12.299 5.497 12.299 12.28v9.21c0 6.781-5.507 12.28-12.299 12.28zM743.687 177.063h-462.937c-6.793 0-12.299-5.498-12.299-12.28v-9.21c0-6.782 5.506-12.28 12.299-12.28h462.937c6.792 0 12.299 5.497 12.299 12.28v9.21c0 6.781-5.507 12.28-12.299 12.28z"  horiz-adv-x="1024" />

    
    <glyph glyph-name="yizhifu" unicode="&#58891;" d="M926.47619-79.238095 97.52381-79.238095c-53.857524 0-97.52381 43.666286-97.52381 97.52381L0 749.714286c0 53.857524 43.666286 97.52381 97.52381 97.52381l828.952381 0c53.857524 0 97.52381-43.666286 97.52381-97.52381l0-731.428571C1024-35.57181 980.333714-79.238095 926.47619-79.238095zM975.238095 749.714286c0 26.940952-21.820952 48.761905-48.761905 48.761905L97.52381 798.47619C70.582857 798.47619 48.761905 776.655238 48.761905 749.714286l0-195.047619 292.571429 0L341.333333 798.47619l48.761905 0 0-512 96.768 48.761905 51.053714 0L633.904762 286.47619 633.904762 798.47619l48.761905 0 0-243.809524 292.571429 0L975.238095 749.714286zM975.238095 505.904762 682.666667 505.904762l0-292.571429-145.67619 73.142857-49.493333 0L341.333333 213.333333 341.333333 505.904762 48.761905 505.904762l0-487.619048c0-26.940952 21.820952-48.761905 48.761905-48.761905l828.952381 0c26.940952 0 48.761905 21.820952 48.761905 48.761905L975.238095 505.904762z"  horiz-adv-x="1024" />

    
    <glyph glyph-name="bumenguanli" unicode="&#58983;" d="M938.879316 192.031987l-63.999084 0 0 159.99522c0 17.666595-14.330457 31.992073-32.002032 31.992073L554.895768 384.01928l0 191.992272 63.989125 0c35.203729 0 64.004063 28.800335 64.004063 63.999084L682.888956 832.003904c0 35.198749-28.800335 63.996096-64.004063 63.996096L426.894613 896c-35.200741 0-63.996096-28.797347-63.996096-63.996096l0-191.994264c0-35.198749 28.795355-63.999084 63.996096-63.999084l63.996096 0 0-191.992272L202.903297 384.018284c-17.671575 0-32.002032-14.325478-32.002032-31.992073l0-159.99522-63.994104 0c-35.200741 0-63.999084-28.800335-63.999084-63.999084l0-191.992272c0-35.203729 28.797347-64.004063 63.999084-64.004063l191.992272 0c35.198749 0 63.999084 28.800335 63.999084 64.004063l0 191.992272c0 35.198749-28.800335 63.999084-63.999084 63.999084l-63.999084 0L234.900349 320.02418l575.97582 0 0-127.993188-63.989125 0c-35.198749 0-63.999084-28.800335-63.999084-63.999084l0-191.992272c0-35.203729 28.800335-64.004063 63.999084-64.004063l191.991276 0c35.198749 0 63.999084 28.800335 63.999084 64.004063l0 191.992272C1002.877404 163.231652 974.07707 192.031987 938.879316 192.031987zM426.894613 832.003904l191.989285 0 0-191.994264L426.894613 640.00964 426.894613 832.003904zM298.899433-63.959369l-191.992272 0 0 191.992272 191.992272 0L298.899433-63.959369zM938.879316-63.959369 746.887044-63.959369l0 191.992272 191.991276 0L938.878321-63.959369z"  horiz-adv-x="1024" />

    
    <glyph glyph-name="caozuorizhi" unicode="&#58984;" d="M1008.712033 490.560054l-58.319417-57.03643-159.718403 158.428416 58.324417 57.03943c17.729823 17.734823 45.624544 20.279797 60.824392 5.076949l105.213948-102.680973C1028.99683 536.199598 1026.446856 508.309877 1008.712033 490.560054L1008.712033 490.560054 1008.712033 490.560054 1008.712033 490.560054 1008.712033 490.560054zM762.810492 565.349307l160.97839-157.168428L540.98871 30.450655c-1.269987-1.264987-6.364936-6.344937-13.949861-7.604924-1.254987 0-1.254987 0-2.544975-1.264987l-200.267997-62.129379c-5.071949-1.269987-11.411886-1.269987-15.221848 2.544975-3.792962 3.789962-5.062949 8.869911-2.549975 15.219848l63.394366 196.477035c0 1.244988 0 1.244988 1.271987 2.529975 1.257987 6.354936 6.336937 13.939861 8.844912 15.219848l73.529265 67.179328L210.157018 258.622374c-10.151898 0-19.02181 11.434886-19.02181 20.269797 0 10.169898 8.869911 21.559784 19.02181 21.559784l281.389186 0L762.810492 565.349307 762.810492 565.349307zM491.546205 43.125529l-98.884011 97.589024-26.621734-82.399176 41.831582-41.824582L491.546205 43.125529 491.546205 43.125529zM757.730543 503.234928c-5.074949 5.059949-15.224848 5.059949-20.279797 0L437.01675 209.163868c-6.334937-5.059949-6.334937-15.204848 0-20.274797 5.076949-5.069949 15.226848-5.069949 20.286797 0l299.146009 294.064059C762.810492 488.02708 762.810492 496.899991 757.730543 503.234928L757.730543 503.234928 757.730543 503.234928 757.730543 503.234928 757.730543 503.234928zM89.719223-70.96333c-10.126899 0-20.261797 3.809962-20.261797 13.939861L69.457425 744.066519c-1.264987 19.01681 11.411886 15.201848 25.339747 15.201848l69.714303 0 0-26.616734c0-10.146899 11.399886-19.01681 22.814772-19.01681 10.151898 0 22.831772 8.869911 22.831772 19.01681l0 26.616734 103.935961 0 0-26.616734c0-10.146899 11.396886-19.01681 22.814772-19.01681 10.151898 0 22.831772 8.869911 22.831772 19.01681l0 26.616734 95.064049 0 0-26.616734c0-10.146899 11.399886-19.01681 22.819772-19.01681 10.161898 0 22.826772 8.869911 22.826772 19.01681l0 26.616734 95.071049 0 0-26.616734c0-10.146899 11.414886-19.01681 22.824772-19.01681 10.144899 0 22.824772 8.869911 22.824772 19.01681l0 26.616734 79.839202 0c10.149899 0 16.489835-5.054949 16.489835-15.201848l0-131.828682 58.324417 57.03443 0 74.794252c0 41.829582-31.694683 72.244278-74.814252 72.244278l-81.114189 0L639.896721 865.762302c0 10.151898-11.409886 19.01681-22.829772 19.01681-10.134899 0-22.809772-8.864911-22.809772-19.01681l0-49.434506-95.071049 0L499.186128 865.762302c0 10.151898-11.399886 19.01681-22.834772 19.01681-10.146899 0-22.804772-8.864911-22.804772-19.01681l0-49.434506-95.074049 0L358.472535 865.762302c0 10.151898-11.411886 19.01681-22.826772 19.01681-10.151898 0-22.814772-8.864911-22.814772-19.01681l0-49.434506L208.887031 816.327797 208.887031 865.762302c0 10.151898-11.409886 19.01681-22.826772 19.01681-10.149899 0-22.811772-8.864911-22.811772-19.01681l0-49.434506L94.796172 816.327797c-57.03643 0-84.921151-30.411696-84.921151-72.244278l0-799.822002c0-41.809582 38.01662-72.249278 81.131189-72.249278l628.709713 0c43.094569 0 74.789252 30.439696 74.789252 72.249278L794.505175 220.593754l-58.314417-57.03443 0-220.536795c0-10.159898-6.339937-13.95486-16.474835-13.95486M587.867241 599.558964 208.887031 599.558964c-10.149899 0-17.734823-12.661873-17.734823-21.529785 0-10.146899 7.604924-21.549785 17.734823-21.549785l378.98021 0c10.164898 0 17.749823 12.681873 17.749823 21.549785C605.617064 586.896091 598.01714 599.558964 587.867241 599.558964L587.867241 599.558964 587.867241 599.558964 587.867241 599.558964 587.867241 599.558964zM587.867241 453.802422 208.887031 453.802422c-10.149899 0-17.734823-12.661873-17.734823-21.544785 0-10.149899 7.604924-21.529785 17.734823-21.529785l378.98021 0c10.164898 0 17.749823 12.676873 17.749823 21.529785C605.617064 441.140549 598.01714 453.802422 587.867241 453.802422L587.867241 453.802422 587.867241 453.802422 587.867241 453.802422 587.867241 453.802422z"  horiz-adv-x="1024" />

    
    <glyph glyph-name="dingdan" unicode="&#58932;" d="M856.006891 846.122009 793.57805 846.122009c-17.263176 0-37.193087-10.472516-37.193087-27.492144s19.929912-34.038234 37.193087-34.038234l62.428841 0c37.190017 0 62.425771-24.877597 62.425771-61.530378l0-708.23636c0-36.652781-25.235754-61.530378-62.425771-61.530378L183.931103-46.705486c-37.185924 0-78.360695 24.877597-78.360695 61.530378L105.570407 723.062276c0 36.652781 25.232684 61.530378 62.425771 61.530378l78.363765 0c17.270339 0 23.907503 17.019629 23.907503 34.038234s-6.638187 27.492144-23.907503 27.492144l-78.363765 0c-87.661525 0-124.853589-53.674457-124.853589-124.365472l0-700.384531c0-75.928297 46.486754-129.603777 131.494846-129.603777l674.722058 0c85.011162 0 131.497916 44.51382 131.497916 129.603777L980.857411 721.756537C980.857411 792.447553 937.03023 846.122009 856.006891 846.122009L856.006891 846.122009 856.006891 846.122009zM246.359944 568.587042c0-17.022699 14.609743-31.420617 31.873941-31.420617l468.857411 0c17.266245 0 31.880081 14.398942 31.880081 31.420617 0 17.019629-14.613836 31.420617-31.880081 31.420617L278.233885 600.007659C260.969687 600.008682 246.359944 585.606671 246.359944 568.587042L246.359944 568.587042 246.359944 568.587042zM745.766115 429.819558 278.233885 429.819558c-17.263176 0-31.873941-14.402011-31.873941-31.42471 0-17.015535 14.609743-31.414477 31.873941-31.414477l468.857411 0c17.266245 0 31.880081 14.398942 31.880081 31.414477C777.646196 416.726356 763.02929 429.819558 745.766115 429.819558L745.766115 429.819558 745.766115 429.819558zM745.766115 245.232516 278.233885 245.232516c-17.263176 0-31.873941-14.402011-31.873941-31.417547 0-17.019629 14.609743-31.417547 31.873941-31.417547l468.857411 0c17.266245 0 31.880081 14.398942 31.880081 31.417547C777.646196 232.139314 763.02929 245.232516 745.766115 245.232516L745.766115 245.232516 745.766115 245.232516zM404.415726 768.881834l217.828121 0c25.235754 0 46.486754 24.871457 46.486754 53.674457 0 28.79686-21.251 53.674457-47.818075 53.674457L404.415726 876.230748c-26.564006 0-47.811936-24.874527-47.811936-53.674457C356.603791 793.753291 377.851721 768.881834 404.415726 768.881834L404.415726 768.881834 404.415726 768.881834zM404.415726 768.881834"  horiz-adv-x="1024" />

    
    <glyph glyph-name="weixin" unicode="&#58935;" d="M873.202 119.996c39.796 36.367 63.946 84.144 63.946 136.467 0 91.062-73.137 168.335-174.607 195.706-6.052 145.915-154.579 262.711-336.947 262.711-186.21 0-337.163-121.764-337.163-271.968 0-68.974 31.833-131.953 84.293-179.895 16.417-15.003-2.804-56.059-26.417-89.977 39.906 11.022 82.471 18.196 119.732 18.196 17.445 0 33.731-1.575 48.03-5.062 34.908-9.865 72.437-15.231 111.523-15.231 7.591 0 15.12 0.225 22.589 0.624 40.125-71.599 129.444-121.424 233.191-121.424 29.65 0 58.123 4.069 84.603 11.556 10.848 2.646 23.199 3.84 36.435 3.84 28.265 0 60.556-5.443 90.83-13.804-17.91 25.73-32.492 56.871-20.037 68.255zM425.595 220.623c-33.675 0-66.651 4.494-98.011 13.359l-0.866 0.244-0.874 0.214c-17.618 4.299-37.738 6.478-59.801 6.478-12.681 0-25.347-0.699-37.732-1.888 2.629 29.109-8.524 48.277-22.071 60.659-21.881 19.995-38.877 42.477-50.515 66.818-11.687 24.446-17.616 50.153-17.616 76.405 0 57.328 28.506 111.892 80.265 153.645 26.429 21.317 57.391 38.117 92.023 49.934 36.391 12.417 75.15 18.711 115.199 18.711s78.807-6.295 115.199-18.711c34.633-11.815 65.594-28.617 92.023-49.934 46.193-37.262 73.845-84.732 79.261-135.26 0.001 0 0.001 0 0.002 0-10.069 0.971-20.314 1.486-30.708 1.486-141.263 0-255.777-92.371-255.777-206.321 0-12.21 1.326-24.174 3.847-35.803-0.001 0.002-0.001 0.002-0.001 0.004-1.285-0.014-2.565-0.041-3.847-0.041zM839.686 156.662c-8.029-7.34-18.617-20.825-20.541-41.932-5.547 0.315-11.14 0.489-16.737 0.489-17.695 0-33.914-1.769-48.207-5.257l-0.874-0.214-0.867-0.242c-22.731-6.427-46.646-9.683-71.089-9.683-29.06 0-57.162 4.561-83.52 13.551-24.941 8.51-47.2 20.576-66.153 35.865-36.388 29.353-56.429 67.431-56.429 107.222 0 39.795 20.041 77.874 56.429 107.226 18.955 15.29 41.211 27.355 66.153 35.865 26.358 8.993 54.46 13.552 83.52 13.552s57.161-4.561 83.519-13.552c24.942-8.512 47.201-20.576 66.154-35.865 36.388-29.351 56.428-67.43 56.428-107.226 0-18.112-4.101-35.873-12.19-52.789-8.162-17.069-20.138-32.887-35.596-47.011zM277.639 496.08c0.27 28.671 18.21 51.777 40.304 51.777 22.26 0 40.306-23.46 40.306-52.398 0-28.94-18.045-52.398-40.306-52.398-22.094 0-40.033 23.107-40.302 51.744zM487.295 496.08c0.27 28.671 18.21 51.777 40.302 51.777 22.259 0 40.305-23.46 40.305-52.398 0-28.94-18.045-52.398-40.305-52.398-22.092 0-40.032 23.107-40.301 51.744zM580.218 294.805c0.27 22.034 14.074 39.763 31.061 39.763 17.156 0 31.065-18.08 31.065-40.384 0-22.304-13.908-40.384-31.065-40.384-16.988 0-30.791 17.729-31.061 39.73zM729.874 294.805c0.27 22.034 14.074 39.763 31.062 39.763 17.156 0 31.067-18.08 31.067-40.384 0-22.304-13.909-40.384-31.067-40.384-16.989 0-30.794 17.729-31.062 39.73z"  horiz-adv-x="1024" />

    
    <glyph glyph-name="youhuiquan" unicode="&#58916;" d="M685.785022 613.745545c-4.773723 4.948709-11.462053 8.03807-18.881023 8.03807s-14.104229-3.090385-18.877953-8.03807l-0.025583 0-125.058251-125.056204L398.952294 612.675166l-0.918929 0.919952-0.151449 0.149403-0.014326 0c-4.693906 4.39203-10.981099 7.099698-17.916045 7.099698-6.933923 0-13.223163-2.707668-17.916045-7.099698-5.118578-4.79112-8.335852-11.586896-8.335852-19.151176 0-7.384178 3.058662-14.044878 7.965415-18.814508l95.624894-95.689363-55.348586 0c-14.498202 0-26.253944-11.752672-26.253944-26.251897 0-14.497179 11.754718-26.250874 26.253944-26.250874l94.750991 0c0-0.038886-0.005117-0.077771-0.005117-0.116657l0-78.713736-94.745874 0c-14.498202 0-26.253944-11.755742-26.253944-26.250874 0-14.500249 11.754718-26.251897 26.253944-26.251897l94.745874 0 0-126.798894c0-14.499226 11.753695-26.249851 26.253944-26.249851s26.251897 11.750625 26.251897 26.249851L549.193087 296.254563l94.744851 0c14.498202 0 26.251897 11.751648 26.251897 26.251897 0 14.495132-11.753695 26.250874-26.251897 26.250874l-94.744851 0 0 78.713736c0 0.038886-0.00614 0.077771-0.008186 0.116657l94.753037 0c14.498202 0 26.251897 11.752672 26.251897 26.250874 0 14.498202-11.753695 26.251897-26.251897 26.251897l-55.343469 0 97.134271 97.165993c0 0 0-0.001023-0.002047-0.00307 4.591575 4.728698 7.429203 11.167341 7.429203 18.278295C693.15692 602.61095 690.341804 609.022986 685.785022 613.745545zM974.030935 258.772904c-1.416256 5.172813-2.182712 10.611685-2.171456 16.232706 0.023536 11.672854 3.338025 22.567995 9.052167 31.82073 2.515287 4.074805 5.493108 7.832386 8.867972 11.19497l-0.001023 0c1.769296 1.763157 3.475148 3.586688 5.120624 5.465478 16.845667 19.225877 27.079752 44.392046 27.133987 71.960938-0.054235 27.567869-10.288321 52.736085-27.133987 71.960938-1.644453 1.87879-3.351328 3.703345-5.120624 5.465478l0.001023 0c-3.374864 3.361561-6.352685 7.120165-8.867972 11.19497-5.714142 9.252735-9.027607 20.146852-9.052167 31.818683-0.011256 5.622044 0.7552 11.06194 2.171456 16.23373 2.818185 10.292414 8.255011 19.504216 15.57472 26.853601 19.791765 19.871583 31.999808 47.292096 31.939433 77.555353-0.053212 25.584702-13.216 121.188106-96.67276 121.188106l-8.026814 0L511.151679 757.718587 105.457844 757.718587l-8.026814 0c-83.45676 0-96.620571-95.603405-96.67276-121.188106-0.060375-30.263258 12.148691-57.682747 31.939433-77.555353 7.318686-7.349385 12.755512-16.561188 15.573697-26.853601 1.416256-5.17179 2.182712-10.611685 2.171456-16.23373-0.023536-11.672854-3.337002-22.566972-9.052167-31.818683-2.515287-4.074805-5.492084-7.833409-8.867972-11.19497l0.001023 0c-1.769296-1.762133-3.475148-3.586688-5.120624-5.465478-16.844643-19.224854-27.078729-44.392046-27.133987-71.960938 0.055259-27.568892 10.288321-52.735062 27.133987-71.960938 1.645476-1.87879 3.351328-3.702322 5.120624-5.465478L32.523741 318.02131c3.374864-3.362584 6.352685-7.120165 8.867972-11.19497 5.715165-9.252735 9.027607-20.146852 9.052167-31.82073 0.011256-5.621021-0.7552-11.060917-2.171456-16.232706-2.818185-10.29139-8.255011-19.505239-15.573697-26.851555-19.791765-19.872606-31.999808-47.292096-31.939433-77.55433 0.052189-25.585725 13.216-121.190153 96.67276-121.190153l8.026814 0 405.694859 0 405.693836 0 8.026814 0c83.45676 0 96.619548 95.604428 96.67276 121.190153 0.061398 30.262234-12.147668 57.681724-31.939433 77.55433C982.286969 239.267665 976.84912 248.481514 974.030935 258.772904zM920.302243 86.388788 511.151679 86.388788 102.288664 86.388788c-11.323906 0-47.952128 7.366781-47.952128 68.074422-0.007163 3.38305 0.275269 6.696516 0.799202 9.930163 2.079358 12.8384 8.16189 24.337291 16.945951 33.157167 2.034333 2.042519 3.984754 4.169973 5.853311 6.368034 12.568247 14.774495 21.280676 32.921807 24.593118 52.892651 0.988514 5.950526 1.50426 12.060687 1.49198 18.293645-0.058328 28.348652-10.872628 54.160527-28.575826 73.583902-1.195222 1.310855-2.421142 2.593058-3.676739 3.845585-11.018961 10.972912-17.856693 26.142403-17.916045 42.914392 0.060375 16.771989 6.897084 31.94148 17.916045 42.913369l0 0.001023c1.25662 1.251503 2.481518 2.534729 3.676739 3.845585 17.703197 19.422352 28.517497 45.235251 28.575826 73.582879 0.013303 6.233981-0.503467 12.343119-1.49198 18.293645-3.312442 19.970844-12.024871 38.118156-24.593118 52.892651-1.86958 2.197038-3.818979 4.324492-5.853311 6.368034-8.78406 8.819876-14.866592 20.318768-16.945951 33.157167-0.524956 3.233648-0.806365 6.547113-0.799202 9.930163 0 60.708664 36.628222 68.033489 47.952128 68.033489l408.863015 0 409.150564 0c11.322883 0 47.952128-7.325849 47.952128-68.033489 0.008186-3.382027-0.275269-6.696516-0.798179-9.930163-2.080382-12.837376-8.162914-24.337291-16.947997-33.157167-2.033309-2.043542-3.983731-4.169973-5.853311-6.368034-12.568247-14.774495-21.280676-32.921807-24.593118-52.892651-0.988514-5.950526-1.50426-12.060687-1.490957-18.293645 0.058328-28.348652 10.871605-54.160527 28.575826-73.582879 1.195222-1.310855 2.421142-2.594081 3.676739-3.845585l0-0.001023c11.019984-10.971889 17.85567-26.14138 17.916045-42.913369-0.060375-16.771989-6.89606-31.94148-17.916045-42.914392-1.255597-1.252527-2.481518-2.534729-3.676739-3.845585-17.704221-19.423375-28.517497-45.235251-28.575826-73.583902-0.013303-6.232958 0.502443-12.343119 1.490957-18.293645 3.312442-19.970844 12.024871-38.117133 24.593118-52.892651 1.86958-2.197038 3.818979-4.325515 5.853311-6.368034 8.785084-8.819876 14.866592-20.318768 16.947997-33.157167 0.523933-3.233648 0.806365-6.547113 0.798179-9.930163C968.255395 93.75557 931.626149 86.388788 920.302243 86.388788z"  horiz-adv-x="1038" />

    
    <glyph glyph-name="kefu" unicode="&#58938;" d="M804.278 529.689c-32.087 134.201-149.477 237.566-292.388 237.566-146.854 0-267.617-100.472-292.387-237.565-37.155-7.103-54.823-26.341-54.823-54.824v-127.919c0-31.945 23.806-54.823 54.823-54.823 17.489 0 44.543 5.337 54.823 18.274 24.842-66.958 110.145-149.298 129.080-151.602 9.44-1.142 14.972-1.66 8.637 6.14-9.369 11.51-68.296 68.992-79.861 149.601-5.104 35.479 20.987 70.313 51.325 76.060 48.755 9.245 97.224 19.792 145.979 28.875 30.981 5.747 52.147 23.075 65.103 51.932 3.034 6.746 6.674 20.344 8.674 40.011 1.785 9.78 11.101 3.159 11.492 2.641 0 0 69.563-23.736 79.879-148.836 6.282-75.879-62.248-177.281-69.956-189.113 0.483 0.732 0.090-10.243 6.568-6.638 57.625 32.355 101.83 86.409 122.264 151.423 8.262-12.528 21.218-21.557 36.246-24.699-24.11-111.842-121.96-181.833-243.204-192.47-7.263 18.382-25.145 31.427-46.15 31.427-27.447 0-49.683-22.165-49.683-49.442 0-27.305 22.235-49.434 49.683-49.434 22.111 0 40.635 14.491 47.078 34.408 140.322 11.599 252.823 96.662 276.308 228.775 20.755 8.834 35.318 23.27 35.318 47.488v127.92c-0.001 47.007-54.611 53.966-54.825 54.823zM731.182 493.141c-36.603 101.079-107.719 164.468-219.292 164.468-111.109 0-200.623-64.049-237.565-164.468-1.838 2.284-16.168 16.276-18.274 18.274 20.914 122.37 131.275 201.016 255.839 201.016 123.959 0 215.972-79.504 237.566-201.016-7.69-10.529-18.273-18.274-18.273-18.274z"  horiz-adv-x="1024" />

    
    <glyph glyph-name="gonggao" unicode="&#58898;" d="M797.590945 115.98178c-6.070252 0-11.975752 3.133364-15.259542 8.750291-4.925173 8.420787-2.090615 19.22997 6.332219 24.15412 40.406269 23.622 74.28589 57.45148 97.961102 97.830119 24.3772 41.573861 37.262672 89.184205 37.262672 137.672546 0 48.073902-12.67774 95.325066-36.667108 136.648217-23.294542 40.116673-56.669674 73.887824-96.522334 97.652064-8.376785 4.990664-11.118222 15.83157-6.123464 24.208355 4.992711 8.372691 15.833617 11.119245 24.209378 6.122441 44.99375-26.835182 82.678024-64.959477 108.97597-110.252033 27.109428-46.705742 41.441854-100.084463 41.441854-154.379043 0-54.762231-14.561647-108.550275-42.113143-155.534356-26.733874-45.589314-64.979944-83.785242-110.603027-110.455671C803.68678 116.759493 800.620955 115.98178 797.590945 115.98178L797.590945 115.98178zM704.394357 230.39253c-6.070252 0-11.975752 3.12927-15.259542 8.746198-4.925173 8.41874-2.090615 19.23611 6.330172 24.15412 20.732184 12.119015 38.112016 29.476335 50.257637 50.193169 12.503778 21.319561 19.10922 45.736671 19.10922 70.609151 0 24.658609-6.500041 48.8905-18.805298 70.081125-11.946077 20.579711-29.070082 37.907355-49.514717 50.101071-8.378831 4.991688-11.116175 15.83157-6.123464 24.207331 4.996804 8.373715 15.835663 11.115152 24.207331 6.119371 25.586748-15.256472 47.01785-36.94033 61.9704-62.696947 15.423271-26.568099 23.577998-56.936757 23.577998-87.812975 0-31.149441-8.284687-61.739133-23.959691-88.470961-15.198144-25.927509-36.948517-47.64616-62.893422-62.817698C710.488145 231.172289 707.418226 230.39253 704.394357 230.39253L704.394357 230.39253zM566.925449-10.136615c-31.956829 0-63.730487 21.708418-68.219731 24.8909l-33.998325 23.716144c-7.995091 5.575995-9.958816 16.579607-4.38282 24.581861 5.581112 7.999185 16.584724 9.957793 24.584931 4.38282l34.19787-23.852244c8.958022-6.328126 38.501896-23.121604 55.770188-17.244756 6.217608 2.118244 12.101619 4.115738 12.81691 36.707017L587.694471 704.123948c-1.828648 30.618345-8.368598 33.580816-15.926738 37.006845-16.133446 7.308453-43.536562-9.978259-51.861158-16.614399l-0.455371-0.352017L308.919257 566.552709c-47.357588-38.544875-111.886253-36.931121-119.159914-36.610826-44.834114-0.202615-82.775238-33.994232-88.422865-78.798671l-1.222851-12.138458 0-110.508883 1.222851-12.146645c5.662977-44.900629 43.759643-78.749552 88.722694-78.797647 0.6191 0.010233 1.238201 0.010233 1.853208 0.010233 60.969607 0 111.988584-33.446763 114.15083-34.883485 3.284813-2.199085 79.546707-53.988612 119.461789-140.396587 4.091178-8.849552 0.228197-19.346627-8.625448-23.431665-8.850575-4.086062-19.34151-0.229221-23.432689 8.623401-35.223223 76.257801-104.660688 124.231419-106.968244 125.807311-1.663896 1.079588-46.193065 29.547966-96.124268 28.963659l-0.207731-0.004093c-62.863746 0-116.127857 47.269583-123.895775 109.955274l-0.050142 0.407276-1.422396 14.117532 0 114.057709 1.471514 14.525831c7.766894 62.681598 61.032028 109.952204 123.895775 109.952204l0.981351-0.029676c0.528026-0.022513 57.3031-2.548032 95.707782 28.900214l0.604774 0.469698L498.097874 752.293017c1.964748 1.539053 12.831236 9.857509 27.221991 16.547885 22.880103 10.637268 43.9817 12.178367 61.022819 4.453429 8.647961-3.917216 17.626449-9.086959 24.672936-20.279882 6.941086-11.023054 10.742668-26.069749 11.965519-47.362704l0.029676-1.010003 0-641.97626-0.00614-0.188288c-0.595564-27.813462-3.975545-58.421574-36.755112-69.568449C579.95009-9.237129 573.434699-10.136615 566.925449-10.136615L566.925449-10.136615z"  horiz-adv-x="1024" />

    
    </font>
</defs>
</svg>
